<svg version="1.1" xmlns="http://www.w3.org/2000/svg" xmlns:xlink="http://www.w3.org/1999/xlink" stroke-linecap="round" stroke-linejoin="round" stroke-width="0" fill-rule="evenodd" clip-rule="evenodd" id="AJkBAfvdipsTCI7Yceq7_top" viewBox="113000 -145000 55000 90000" width="55mm" height="90mm" class="w-100 h-100"><defs><style>.AJkBAfvdipsTCI7Yceq7_fr4 {color: #666666;}
.AJkBAfvdipsTCI7Yceq7_cu {color: #cccccc;}
.AJkBAfvdipsTCI7Yceq7_cf {color: #cc9933;}
.AJkBAfvdipsTCI7Yceq7_sm {color: #004200; opacity: 0.75;}
.AJkBAfvdipsTCI7Yceq7_ss {color: #ffffff;}
.AJkBAfvdipsTCI7Yceq7_sp {color: #999999;}
.AJkBAfvdipsTCI7Yceq7_out {color: #000000;}</style><circle cx="0" cy="0" r="800" id="LcJpQJ4W3zZ3rdswILz6_pad-15"/><rect x="-800" y="-800" width="1600" height="1600" rx="800" ry="800" id="LcJpQJ4W3zZ3rdswILz6_pad-16"/><circle cx="0" cy="0" r="1750" id="LcJpQJ4W3zZ3rdswILz6_pad-17"/><rect x="-1150" y="-900" width="2300" height="1800" id="LcJpQJ4W3zZ3rdswILz6_pad-18"/><rect x="-1150" y="-900" width="2300" height="1800" rx="900" ry="900" id="LcJpQJ4W3zZ3rdswILz6_pad-19"/><rect x="-1150" y="-800" width="2300" height="1600" id="LcJpQJ4W3zZ3rdswILz6_pad-20"/><rect x="-1150" y="-800" width="2300" height="1600" rx="800" ry="800" id="LcJpQJ4W3zZ3rdswILz6_pad-21"/><circle cx="0" cy="0" r="1000" id="LcJpQJ4W3zZ3rdswILz6_pad-22"/><circle cx="0" cy="0" r="2000" id="LcJpQJ4W3zZ3rdswILz6_pad-23"/><rect x="-800" y="-1050" width="1600" height="2100" id="LcJpQJ4W3zZ3rdswILz6_pad-24"/><rect x="-800" y="-1050" width="1600" height="2100" rx="800" ry="800" id="LcJpQJ4W3zZ3rdswILz6_pad-25"/><rect x="-1200" y="-800" width="2400" height="1600" id="LcJpQJ4W3zZ3rdswILz6_pad-26"/><rect x="-1200" y="-800" width="2400" height="1600" rx="800" ry="800" id="LcJpQJ4W3zZ3rdswILz6_pad-27"/><rect x="-850" y="-850" width="1700" height="1700" id="LcJpQJ4W3zZ3rdswILz6_pad-28"/><rect x="-850" y="-850" width="1700" height="1700" rx="850" ry="850" id="LcJpQJ4W3zZ3rdswILz6_pad-29"/><mask id="LcJpQJ4W3zZ3rdswILz6_clear-1" fill="#000" stroke="#000"><g><rect x="113318.069" y="-144309.669" width="54220.026" height="88859.669" fill="#fff"/><use xlink:href="#LcJpQJ4W3zZ3rdswILz6_pad-15" x="135420" y="-99500"/><use xlink:href="#LcJpQJ4W3zZ3rdswILz6_pad-16" x="145580" y="-99500"/><use xlink:href="#LcJpQJ4W3zZ3rdswILz6_pad-15" x="132000" y="-111520"/><use xlink:href="#LcJpQJ4W3zZ3rdswILz6_pad-16" x="132000" y="-121680"/><use xlink:href="#LcJpQJ4W3zZ3rdswILz6_pad-15" x="125984" y="-91694"/><use xlink:href="#LcJpQJ4W3zZ3rdswILz6_pad-16" x="125984" y="-81534"/><use xlink:href="#LcJpQJ4W3zZ3rdswILz6_pad-17" x="163000" y="-140000"/><use xlink:href="#LcJpQJ4W3zZ3rdswILz6_pad-18" x="118617" y="-70500"/><use xlink:href="#LcJpQJ4W3zZ3rdswILz6_pad-19" x="121657" y="-70500"/><use xlink:href="#LcJpQJ4W3zZ3rdswILz6_pad-17" x="163000" y="-60000"/><use xlink:href="#LcJpQJ4W3zZ3rdswILz6_pad-15" x="117250" y="-127500"/><use xlink:href="#LcJpQJ4W3zZ3rdswILz6_pad-15" x="117250" y="-130000"/><use xlink:href="#LcJpQJ4W3zZ3rdswILz6_pad-20" x="118618" y="-88392"/><use xlink:href="#LcJpQJ4W3zZ3rdswILz6_pad-21" x="118618" y="-90932"/><use xlink:href="#LcJpQJ4W3zZ3rdswILz6_pad-21" x="118618" y="-93472"/><use xlink:href="#LcJpQJ4W3zZ3rdswILz6_pad-15" x="128250" y="-101750"/><use xlink:href="#LcJpQJ4W3zZ3rdswILz6_pad-15" x="128250" y="-99250"/><use xlink:href="#LcJpQJ4W3zZ3rdswILz6_pad-22" x="158200" y="-78000"/><use xlink:href="#LcJpQJ4W3zZ3rdswILz6_pad-22" x="158200" y="-71500"/><use xlink:href="#LcJpQJ4W3zZ3rdswILz6_pad-22" x="162700" y="-78000"/><use xlink:href="#LcJpQJ4W3zZ3rdswILz6_pad-22" x="162700" y="-71500"/><use xlink:href="#LcJpQJ4W3zZ3rdswILz6_pad-23" x="153000" y="-132989.669"/><use xlink:href="#LcJpQJ4W3zZ3rdswILz6_pad-23" x="128000" y="-132989.669"/><use xlink:href="#LcJpQJ4W3zZ3rdswILz6_pad-24" x="134960" y="-131319.669"/><use xlink:href="#LcJpQJ4W3zZ3rdswILz6_pad-25" x="137730" y="-131319.669"/><use xlink:href="#LcJpQJ4W3zZ3rdswILz6_pad-25" x="140500" y="-131319.669"/><use xlink:href="#LcJpQJ4W3zZ3rdswILz6_pad-25" x="143270" y="-131319.669"/><use xlink:href="#LcJpQJ4W3zZ3rdswILz6_pad-25" x="146040" y="-131319.669"/><use xlink:href="#LcJpQJ4W3zZ3rdswILz6_pad-25" x="136345" y="-134659.669"/><use xlink:href="#LcJpQJ4W3zZ3rdswILz6_pad-25" x="139115" y="-134659.669"/><use xlink:href="#LcJpQJ4W3zZ3rdswILz6_pad-25" x="141885" y="-134659.669"/><use xlink:href="#LcJpQJ4W3zZ3rdswILz6_pad-25" x="144655" y="-134659.669"/><use xlink:href="#LcJpQJ4W3zZ3rdswILz6_pad-26" x="124600" y="-121671"/><use xlink:href="#LcJpQJ4W3zZ3rdswILz6_pad-27" x="124600" y="-119131"/><use xlink:href="#LcJpQJ4W3zZ3rdswILz6_pad-27" x="124600" y="-116591"/><use xlink:href="#LcJpQJ4W3zZ3rdswILz6_pad-27" x="124600" y="-114051"/><use xlink:href="#LcJpQJ4W3zZ3rdswILz6_pad-27" x="124600" y="-111511"/><use xlink:href="#LcJpQJ4W3zZ3rdswILz6_pad-27" x="124600" y="-108971"/><use xlink:href="#LcJpQJ4W3zZ3rdswILz6_pad-27" x="124600" y="-106431"/><use xlink:href="#LcJpQJ4W3zZ3rdswILz6_pad-27" x="116980" y="-106431"/><use xlink:href="#LcJpQJ4W3zZ3rdswILz6_pad-27" x="116980" y="-108971"/><use xlink:href="#LcJpQJ4W3zZ3rdswILz6_pad-27" x="116980" y="-111511"/><use xlink:href="#LcJpQJ4W3zZ3rdswILz6_pad-27" x="116980" y="-114051"/><use xlink:href="#LcJpQJ4W3zZ3rdswILz6_pad-27" x="116980" y="-116591"/><use xlink:href="#LcJpQJ4W3zZ3rdswILz6_pad-27" x="116980" y="-119131"/><use xlink:href="#LcJpQJ4W3zZ3rdswILz6_pad-27" x="116980" y="-121671"/><use xlink:href="#LcJpQJ4W3zZ3rdswILz6_pad-17" x="118000" y="-60000"/><use xlink:href="#LcJpQJ4W3zZ3rdswILz6_pad-26" x="132900" y="-56900"/><use xlink:href="#LcJpQJ4W3zZ3rdswILz6_pad-27" x="132900" y="-59440"/><use xlink:href="#LcJpQJ4W3zZ3rdswILz6_pad-27" x="132900" y="-61980"/><use xlink:href="#LcJpQJ4W3zZ3rdswILz6_pad-27" x="132900" y="-64520"/><use xlink:href="#LcJpQJ4W3zZ3rdswILz6_pad-27" x="132900" y="-67060"/><use xlink:href="#LcJpQJ4W3zZ3rdswILz6_pad-27" x="132900" y="-69600"/><use xlink:href="#LcJpQJ4W3zZ3rdswILz6_pad-27" x="132900" y="-72140"/><use xlink:href="#LcJpQJ4W3zZ3rdswILz6_pad-27" x="132900" y="-74680"/><use xlink:href="#LcJpQJ4W3zZ3rdswILz6_pad-27" x="132900" y="-77220"/><use xlink:href="#LcJpQJ4W3zZ3rdswILz6_pad-27" x="132900" y="-79760"/><use xlink:href="#LcJpQJ4W3zZ3rdswILz6_pad-27" x="132900" y="-82300"/><use xlink:href="#LcJpQJ4W3zZ3rdswILz6_pad-27" x="132900" y="-84840"/><use xlink:href="#LcJpQJ4W3zZ3rdswILz6_pad-27" x="148140" y="-84840"/><use xlink:href="#LcJpQJ4W3zZ3rdswILz6_pad-27" x="148140" y="-82300"/><use xlink:href="#LcJpQJ4W3zZ3rdswILz6_pad-27" x="148140" y="-79760"/><use xlink:href="#LcJpQJ4W3zZ3rdswILz6_pad-27" x="148140" y="-77220"/><use xlink:href="#LcJpQJ4W3zZ3rdswILz6_pad-27" x="148140" y="-74680"/><use xlink:href="#LcJpQJ4W3zZ3rdswILz6_pad-27" x="148140" y="-72140"/><use xlink:href="#LcJpQJ4W3zZ3rdswILz6_pad-27" x="148140" y="-69600"/><use xlink:href="#LcJpQJ4W3zZ3rdswILz6_pad-27" x="148140" y="-67060"/><use xlink:href="#LcJpQJ4W3zZ3rdswILz6_pad-27" x="148140" y="-64520"/><use xlink:href="#LcJpQJ4W3zZ3rdswILz6_pad-27" x="148140" y="-61980"/><use xlink:href="#LcJpQJ4W3zZ3rdswILz6_pad-27" x="148140" y="-59440"/><use xlink:href="#LcJpQJ4W3zZ3rdswILz6_pad-27" x="148140" y="-56900"/><use xlink:href="#LcJpQJ4W3zZ3rdswILz6_pad-17" x="118000" y="-140000"/><use xlink:href="#LcJpQJ4W3zZ3rdswILz6_pad-28" x="159225" y="-88000"/><use xlink:href="#LcJpQJ4W3zZ3rdswILz6_pad-29" x="161765" y="-88000"/><use xlink:href="#LcJpQJ4W3zZ3rdswILz6_pad-29" x="159225" y="-90540"/><use xlink:href="#LcJpQJ4W3zZ3rdswILz6_pad-29" x="161765" y="-90540"/><use xlink:href="#LcJpQJ4W3zZ3rdswILz6_pad-29" x="159225" y="-93080"/><use xlink:href="#LcJpQJ4W3zZ3rdswILz6_pad-29" x="161765" y="-93080"/><use xlink:href="#LcJpQJ4W3zZ3rdswILz6_pad-29" x="159225" y="-95620"/><use xlink:href="#LcJpQJ4W3zZ3rdswILz6_pad-29" x="161765" y="-95620"/></g></mask><circle cx="0" cy="0" r="800" id="X8nLYxzU2ruRW_aH9hod_pad-10"/><rect x="-800" y="-800" width="1600" height="1600" rx="800" ry="800" id="X8nLYxzU2ruRW_aH9hod_pad-11"/><circle cx="0" cy="0" r="1750" id="X8nLYxzU2ruRW_aH9hod_pad-12"/><rect x="-1150" y="-900" width="2300" height="1800" id="X8nLYxzU2ruRW_aH9hod_pad-13"/><rect x="-1150" y="-900" width="2300" height="1800" rx="900" ry="900" id="X8nLYxzU2ruRW_aH9hod_pad-14"/><rect x="-1150" y="-800" width="2300" height="1600" id="X8nLYxzU2ruRW_aH9hod_pad-15"/><rect x="-1150" y="-800" width="2300" height="1600" rx="800" ry="800" id="X8nLYxzU2ruRW_aH9hod_pad-16"/><circle cx="0" cy="0" r="1000" id="X8nLYxzU2ruRW_aH9hod_pad-17"/><circle cx="0" cy="0" r="2000" id="X8nLYxzU2ruRW_aH9hod_pad-18"/><rect x="-800" y="-1050" width="1600" height="2100" id="X8nLYxzU2ruRW_aH9hod_pad-19"/><rect x="-800" y="-1050" width="1600" height="2100" rx="800" ry="800" id="X8nLYxzU2ruRW_aH9hod_pad-20"/><rect x="-1200" y="-800" width="2400" height="1600" id="X8nLYxzU2ruRW_aH9hod_pad-21"/><rect x="-1200" y="-800" width="2400" height="1600" rx="800" ry="800" id="X8nLYxzU2ruRW_aH9hod_pad-22"/><rect x="-850" y="-850" width="1700" height="1700" id="X8nLYxzU2ruRW_aH9hod_pad-23"/><rect x="-850" y="-850" width="1700" height="1700" rx="850" ry="850" id="X8nLYxzU2ruRW_aH9hod_pad-24"/><circle cx="0" cy="0" r="800" id="eZQ1c_vVYM5jFUTRgu0o_pad-10"/><rect x="-800" y="-800" width="1600" height="1600" rx="800" ry="800" id="eZQ1c_vVYM5jFUTRgu0o_pad-11"/><rect x="-1150" y="-900" width="2300" height="1800" id="eZQ1c_vVYM5jFUTRgu0o_pad-12"/><rect x="-1150" y="-900" width="2300" height="1800" rx="900" ry="900" id="eZQ1c_vVYM5jFUTRgu0o_pad-13"/><rect x="-1150" y="-800" width="2300" height="1600" id="eZQ1c_vVYM5jFUTRgu0o_pad-14"/><rect x="-1150" y="-800" width="2300" height="1600" rx="800" ry="800" id="eZQ1c_vVYM5jFUTRgu0o_pad-15"/><circle cx="0" cy="0" r="1000" id="eZQ1c_vVYM5jFUTRgu0o_pad-16"/><circle cx="0" cy="0" r="2000" id="eZQ1c_vVYM5jFUTRgu0o_pad-17"/><rect x="-800" y="-1050" width="1600" height="2100" id="eZQ1c_vVYM5jFUTRgu0o_pad-18"/><rect x="-800" y="-1050" width="1600" height="2100" rx="800" ry="800" id="eZQ1c_vVYM5jFUTRgu0o_pad-19"/><rect x="-1200" y="-800" width="2400" height="1600" id="eZQ1c_vVYM5jFUTRgu0o_pad-20"/><rect x="-1200" y="-800" width="2400" height="1600" rx="800" ry="800" id="eZQ1c_vVYM5jFUTRgu0o_pad-21"/><rect x="-850" y="-850" width="1700" height="1700" id="eZQ1c_vVYM5jFUTRgu0o_pad-22"/><rect x="-850" y="-850" width="1700" height="1700" rx="850" ry="850" id="eZQ1c_vVYM5jFUTRgu0o_pad-23"/><circle cx="0" cy="0" r="400" id="eZQ1c_vVYM5jFUTRgu0o_pad-24"/><circle cx="0" cy="0" r="7.85" id="QzsaA1XW7YDq_y09DxAC_pad-1"/><circle cx="0" cy="0" r="15.75" id="QzsaA1XW7YDq_y09DxAC_pad-2"/><circle cx="0" cy="0" r="17.7" id="QzsaA1XW7YDq_y09DxAC_pad-3"/><circle cx="0" cy="0" r="19.7" id="QzsaA1XW7YDq_y09DxAC_pad-4"/><circle cx="0" cy="0" r="21.65" id="QzsaA1XW7YDq_y09DxAC_pad-5"/><circle cx="0" cy="0" r="63" id="QzsaA1XW7YDq_y09DxAC_pad-6"/><circle cx="0" cy="0" r="68.9" id="wKz68T3oYHp7FGO5UfiH_pad-1"/><g id="AJkBAfvdipsTCI7Yceq7_top_silkscreen"><g mask="url(#LcJpQJ4W3zZ3rdswILz6_clear-1)"><path d="M 167388.095 -81297.619 166521.428 -81297.619 M 166769.047 -81297.619 166645.238 -81235.714 166583.333 -81173.809 166521.428 -81050 166521.428 -80926.19 M 167326.19 -79997.619 167388.095 -80121.428 167388.095 -80369.047 167326.19 -80492.857 167202.38 -80554.761 166707.142 -80554.761 166583.333 -80492.857 166521.428 -80369.047 166521.428 -80121.428 166583.333 -79997.619 166707.142 -79935.714 166830.952 -79935.714 166954.761 -80554.761 M 166521.428 -79502.38 167388.095 -79192.857 166521.428 -78883.333 M 167264.285 -78388.095 167326.19 -78326.19 167388.095 -78388.095 167326.19 -78450 167264.285 -78388.095 167388.095 -78388.095 M 166521.428 -76221.428 167388.095 -76221.428 M 166026.19 -76530.952 166954.761 -76840.476 166954.761 -76035.714 M 167264.285 -75540.476 167326.19 -75478.571 167388.095 -75540.476 167326.19 -75602.38 167264.285 -75540.476 167388.095 -75540.476 M 166088.095 -74673.809 166088.095 -74550 166150 -74426.19 166211.904 -74364.285 166335.714 -74302.38 166583.333 -74240.476 166892.857 -74240.476 167140.476 -74302.38 167264.285 -74364.285 167326.19 -74426.19 167388.095 -74550 167388.095 -74673.809 167326.19 -74797.619 167264.285 -74859.523 167140.476 -74921.428 166892.857 -74983.333 166583.333 -74983.333 166335.714 -74921.428 166211.904 -74859.523 166150 -74797.619 166088.095 -74673.809" fill="none" stroke-width="300"/><path d="M 163857.142 -130891.16 166428.571 -131212.589 166714.285 -131391.16 166857.142 -131694.732 166857.142 -131837.589 M 162857.142 -130766.16 163000 -130926.875 163142.857 -130801.875 163000 -130641.16 162857.142 -130766.16 163142.857 -130801.875 M 165857.142 -129284.017 165714.285 -129551.875 165571.428 -129676.875 165285.714 -129784.017 164428.571 -129676.875 164142.857 -129498.303 164000 -129337.589 163857.142 -129034.017 163857.142 -128605.446 164000 -128337.589 164142.857 -128212.589 164428.571 -128105.446 165285.714 -128212.589 165571.428 -128391.16 165714.285 -128551.875 165857.142 -128855.446 165857.142 -129284.017 M 163857.142 -127034.017 165857.142 -126569.732 M 163857.142 -125605.446 165857.142 -126569.732 166571.428 -126944.732 166714.285 -127105.446 166857.142 -127409.017 M 163142.857 -124516.16 163000 -124355.446 162857.142 -124051.875 162857.142 -123337.589 163000 -123069.732 163142.857 -122944.732 163428.571 -122837.589 163714.285 -122873.303 164142.857 -123069.732 165857.142 -124998.303 165857.142 -123141.16 M 163857.142 -120319.732 165857.142 -120569.732 M 163857.142 -121605.446 165428.571 -121801.875 165714.285 -121694.732 165857.142 -121426.875 165857.142 -120998.303 165714.285 -120694.732 165571.428 -120534.017 M 165714.285 -119266.16 165857.142 -118998.303 165857.142 -118426.875 165714.285 -118123.303 165428.571 -117944.732 165285.714 -117926.875 165000 -118034.017 164857.142 -118301.875 164857.142 -118730.446 164714.285 -118998.303 164428.571 -119105.446 164285.714 -119087.589 164000 -118909.017 163857.142 -118605.446 163857.142 -118176.875 164000 -117909.017 M 165857.142 -116712.589 162857.142 -116337.589 M 164000 -116480.446 163857.142 -116176.875 163857.142 -115605.446 164000 -115337.589 164142.857 -115212.589 164428.571 -115105.446 165285.714 -115212.589 165571.428 -115391.16 165714.285 -115551.875 165857.142 -115855.446 165857.142 -116426.875 165714.285 -116694.732" fill="none" stroke-width="500"/><path d="M 140333.333 -99952.38 140000 -99476.19 M 139761.904 -99952.38 139761.904 -98952.38 140142.857 -98952.38 140238.095 -99000 140285.714 -99047.619 140333.333 -99142.857 140333.333 -99285.714 140285.714 -99380.952 140238.095 -99428.571 140142.857 -99476.19 139761.904 -99476.19 M 140666.666 -98952.38 141285.714 -98952.38 140952.38 -99333.333 141095.238 -99333.333 141190.476 -99380.952 141238.095 -99428.571 141285.714 -99523.809 141285.714 -99761.904 141238.095 -99857.142 141190.476 -99904.761 141095.238 -99952.38 140809.523 -99952.38 140714.285 -99904.761 140666.666 -99857.142 M 132452.38 -116766.666 131976.19 -117100 M 132452.38 -117338.095 131452.38 -117338.095 131452.38 -116957.142 131500 -116861.904 131547.619 -116814.285 131642.857 -116766.666 131785.714 -116766.666 131880.952 -116814.285 131928.571 -116861.904 131976.19 -116957.142 131976.19 -117338.095 M 131547.619 -116385.714 131500 -116338.095 131452.38 -116242.857 131452.38 -116004.761 131500 -115909.523 131547.619 -115861.904 131642.857 -115814.285 131738.095 -115814.285 131880.952 -115861.904 132452.38 -116433.333 132452.38 -115814.285 M 126436.38 -86780.666 125960.19 -87114 M 126436.38 -87352.095 125436.38 -87352.095 125436.38 -86971.142 125484 -86875.904 125531.619 -86828.285 125626.857 -86780.666 125769.714 -86780.666 125864.952 -86828.285 125912.571 -86875.904 125960.19 -86971.142 125960.19 -87352.095 M 126436.38 -85828.285 126436.38 -86399.714 M 126436.38 -86114 125436.38 -86114 125579.238 -86209.238 125674.476 -86304.476 125722.095 -86399.714 M 119398.904 -67992.38 119398.904 -66992.38 119637 -66992.38 119779.857 -67040 119875.095 -67135.238 119922.714 -67230.476 119970.333 -67420.952 119970.333 -67563.809 119922.714 -67754.285 119875.095 -67849.523 119779.857 -67944.761 119637 -67992.38 119398.904 -67992.38 M 120922.714 -67992.38 120351.285 -67992.38 M 120637 -67992.38 120637 -66992.38 120541.761 -67135.238 120446.523 -67230.476 120351.285 -67278.095" fill="none" stroke-width="150"/><path d="M 114756.164 -75618.285 114660.926 -75713.523 114375.212 -75808.761 114184.736 -75808.761 113899.021 -75713.523 113708.545 -75523.047 113613.307 -75332.571 113518.069 -74951.619 113518.069 -74665.904 113613.307 -74284.952 113708.545 -74094.476 113899.021 -73904 114184.736 -73808.761 114375.212 -73808.761 114660.926 -73904 114756.164 -73999.238 M 116470.45 -73808.761 116089.497 -73808.761 115899.021 -73904 115803.783 -73999.238 115613.307 -74284.952 115518.069 -74665.904 115518.069 -75427.809 115613.307 -75618.285 115708.545 -75713.523 115899.021 -75808.761 116279.974 -75808.761 116470.45 -75713.523 116565.688 -75618.285 116660.926 -75427.809 116660.926 -74951.619 116565.688 -74761.142 116470.45 -74665.904 116279.974 -74570.666 115899.021 -74570.666 115708.545 -74665.904 115613.307 -74761.142 115518.069 -74951.619 M 118375.212 -74475.428 118375.212 -75808.761 M 117899.021 -73713.523 117422.831 -75142.095 118660.926 -75142.095 M 119422.831 -75808.761 119422.831 -73808.761 120089.497 -75237.333 120756.164 -73808.761 120756.164 -75808.761 M 122089.497 -73808.761 122470.45 -73808.761 122660.926 -73904 122851.402 -74094.476 122946.64 -74475.428 122946.64 -75142.095 122851.402 -75523.047 122660.926 -75713.523 122470.45 -75808.761 122089.497 -75808.761 121899.021 -75713.523 121708.545 -75523.047 121613.307 -75142.095 121613.307 -74475.428 121708.545 -74094.476 121899.021 -73904 122089.497 -73808.761 M 123803.783 -75808.761 123803.783 -73808.761 124279.974 -73808.761 124565.688 -73904 124756.164 -74094.476 124851.402 -74284.952 124946.64 -74665.904 124946.64 -74951.619 124851.402 -75332.571 124756.164 -75523.047 124565.688 -75713.523 124279.974 -75808.761 123803.783 -75808.761 M 125803.783 -74761.142 126470.45 -74761.142 M 126756.164 -75808.761 125803.783 -75808.761 125803.783 -73808.761 126756.164 -73808.761" fill="none" stroke-width="400"/><path d="M 120157.142 -128916.666 120204.761 -128964.285 120252.38 -129107.142 120252.38 -129202.38 120204.761 -129345.238 120109.523 -129440.476 120014.285 -129488.095 119823.809 -129535.714 119680.952 -129535.714 119490.476 -129488.095 119395.238 -129440.476 119300 -129345.238 119252.38 -129202.38 119252.38 -129107.142 119300 -128964.285 119347.619 -128916.666 M 120252.38 -127964.285 120252.38 -128535.714 M 120252.38 -128250 119252.38 -128250 119395.238 -128345.238 119490.476 -128440.476 119538.095 -128535.714 M 114654.761 -92265.333 114702.38 -92122.476 114702.38 -91884.38 114654.761 -91789.142 114607.142 -91741.523 114511.904 -91693.904 114416.666 -91693.904 114321.428 -91741.523 114273.809 -91789.142 114226.19 -91884.38 114178.571 -92074.857 114130.952 -92170.095 114083.333 -92217.714 113988.095 -92265.333 113892.857 -92265.333 113797.619 -92217.714 113750 -92170.095 113702.38 -92074.857 113702.38 -91836.761 113750 -91693.904 M 113702.38 -91360.571 114702.38 -91122.476 113988.095 -90932 114702.38 -90741.523 113702.38 -90503.428 M 113797.619 -90170.095 113750 -90122.476 113702.38 -90027.238 113702.38 -89789.142 113750 -89693.904 113797.619 -89646.285 113892.857 -89598.666 113988.095 -89598.666 114130.952 -89646.285 114702.38 -90217.714 114702.38 -89598.666" fill="none" stroke-width="150"/><path d="M 115060.857 -99800 115918 -99800 M 114889.428 -100314.285 115489.428 -98514.285 116089.428 -100314.285 M 116689.428 -100314.285 116689.428 -98514.285 117289.428 -99800 117889.428 -98514.285 117889.428 -100314.285 M 118746.571 -100314.285 118746.571 -98514.285 M 120546.571 -98600 120375.142 -98514.285 120118 -98514.285 119860.857 -98600 119689.428 -98771.428 119603.714 -98942.857 119518 -99285.714 119518 -99542.857 119603.714 -99885.714 119689.428 -100057.142 119860.857 -100228.571 120118 -100314.285 120289.428 -100314.285 120546.571 -100228.571 120632.285 -100142.857 120632.285 -99542.857 120289.428 -99542.857 M 121318 -99800 122175.142 -99800 M 121146.571 -100314.285 121746.571 -98514.285 122346.571 -100314.285 M 117460.857 -83392.857 117375.142 -83478.571 117118 -83564.285 116946.571 -83564.285 116689.428 -83478.571 116518 -83307.142 116432.285 -83135.714 116346.571 -82792.857 116346.571 -82535.714 116432.285 -82192.857 116518 -82021.428 116689.428 -81850 116946.571 -81764.285 117118 -81764.285 117375.142 -81850 117460.857 -81935.714 M 119003.714 -81764.285 118660.857 -81764.285 118489.428 -81850 118403.714 -81935.714 118232.285 -82192.857 118146.571 -82535.714 118146.571 -83221.428 118232.285 -83392.857 118318 -83478.571 118489.428 -83564.285 118832.285 -83564.285 119003.714 -83478.571 119089.428 -83392.857 119175.142 -83221.428 119175.142 -82792.857 119089.428 -82621.428 119003.714 -82535.714 118832.285 -82450 118489.428 -82450 118318 -82535.714 118232.285 -82621.428 118146.571 -82792.857 M 120718 -82364.285 120718 -83564.285 M 120289.428 -81678.571 119860.857 -82964.285 120975.142 -82964.285" fill="none" stroke-width="300"/><path d="M 131007.142 -100616.666 131054.761 -100664.285 131102.38 -100807.142 131102.38 -100902.38 131054.761 -101045.238 130959.523 -101140.476 130864.285 -101188.095 130673.809 -101235.714 130530.952 -101235.714 130340.476 -101188.095 130245.238 -101140.476 130150 -101045.238 130102.38 -100902.38 130102.38 -100807.142 130150 -100664.285 130197.619 -100616.666 M 130197.619 -100235.714 130150 -100188.095 130102.38 -100092.857 130102.38 -99854.761 130150 -99759.523 130197.619 -99711.904 130292.857 -99664.285 130388.095 -99664.285 130530.952 -99711.904 131102.38 -100283.333 131102.38 -99664.285 M 160854.761 -76083.333 160902.38 -75940.476 160902.38 -75702.38 160854.761 -75607.142 160807.142 -75559.523 160711.904 -75511.904 160616.666 -75511.904 160521.428 -75559.523 160473.809 -75607.142 160426.19 -75702.38 160378.571 -75892.857 160330.952 -75988.095 160283.333 -76035.714 160188.095 -76083.333 160092.857 -76083.333 159997.619 -76035.714 159950 -75988.095 159902.38 -75892.857 159902.38 -75654.761 159950 -75511.904 M 159902.38 -75178.571 160902.38 -74940.476 160188.095 -74750 160902.38 -74559.523 159902.38 -74321.428 M 160902.38 -73416.666 160902.38 -73988.095 M 160902.38 -73702.38 159902.38 -73702.38 160045.238 -73797.619 160140.476 -73892.857 160188.095 -73988.095 M 159902.38 -81202.38 159569.047 -80726.19 M 159330.952 -81202.38 159330.952 -80202.38 159711.904 -80202.38 159807.142 -80250 159854.761 -80297.619 159902.38 -80392.857 159902.38 -80535.714 159854.761 -80630.952 159807.142 -80678.571 159711.904 -80726.19 159330.952 -80726.19 M 160283.333 -81154.761 160426.19 -81202.38 160664.285 -81202.38 160759.523 -81154.761 160807.142 -81107.142 160854.761 -81011.904 160854.761 -80916.666 160807.142 -80821.428 160759.523 -80773.809 160664.285 -80726.19 160473.809 -80678.571 160378.571 -80630.952 160330.952 -80583.333 160283.333 -80488.095 160283.333 -80392.857 160330.952 -80297.619 160378.571 -80250 160473.809 -80202.38 160711.904 -80202.38 160854.761 -80250 M 161140.476 -80202.38 161711.904 -80202.38 M 161426.19 -81202.38 161426.19 -80202.38 M 140166.666 -128222.049 140166.666 -128936.335 140119.047 -129079.192 140023.809 -129174.43 139880.952 -129222.049 139785.714 -129222.049 M 141166.666 -129222.049 140595.238 -129222.049 M 140880.952 -129222.049 140880.952 -128222.049 140785.714 -128364.907 140690.476 -128460.145 140595.238 -128507.764 M 120028.095 -123453.38 120028.095 -124262.904 120075.714 -124358.142 120123.333 -124405.761 120218.571 -124453.38 120409.047 -124453.38 120504.285 -124405.761 120551.904 -124358.142 120599.523 -124262.904 120599.523 -123453.38 M 121028.095 -123548.619 121075.714 -123501 121170.952 -123453.38 121409.047 -123453.38 121504.285 -123501 121551.904 -123548.619 121599.523 -123643.857 121599.523 -123739.095 121551.904 -123881.952 120980.476 -124453.38 121599.523 -124453.38 M 139758.095 -56852.38 139758.095 -57661.904 139805.714 -57757.142 139853.333 -57804.761 139948.571 -57852.38 140139.047 -57852.38 140234.285 -57804.761 140281.904 -57757.142 140329.523 -57661.904 140329.523 -56852.38 M 141329.523 -57852.38 140758.095 -57852.38 M 141043.809 -57852.38 141043.809 -56852.38 140948.571 -56995.238 140853.333 -57090.476 140758.095 -57138.095 M 160161.666 -84678.38 160161.666 -85392.666 160114.047 -85535.523 160018.809 -85630.761 159875.952 -85678.38 159780.714 -85678.38 M 160590.238 -84773.619 160637.857 -84726 160733.095 -84678.38 160971.19 -84678.38 161066.428 -84726 161114.047 -84773.619 161161.666 -84868.857 161161.666 -84964.095 161114.047 -85106.952 160542.619 -85678.38 161161.666 -85678.38 M 154554.333 -90992.38 154554.333 -89992.38 154935.285 -89992.38 155030.523 -90040 155078.142 -90087.619 155125.761 -90182.857 155125.761 -90325.714 155078.142 -90420.952 155030.523 -90468.571 154935.285 -90516.19 154554.333 -90516.19 M 155887.666 -90468.571 155554.333 -90468.571 M 155554.333 -90992.38 155554.333 -89992.38 156030.523 -89992.38 M 156887.666 -89992.38 156411.476 -89992.38 156363.857 -90468.571 156411.476 -90420.952 156506.714 -90373.333 156744.809 -90373.333 156840.047 -90420.952 156887.666 -90468.571 156935.285 -90563.809 156935.285 -90801.904 156887.666 -90897.142 156840.047 -90944.761 156744.809 -90992.38 156506.714 -90992.38 156411.476 -90944.761 156363.857 -90897.142 M 154554.333 -88452.38 154554.333 -87452.38 154935.285 -87452.38 155030.523 -87500 155078.142 -87547.619 155125.761 -87642.857 155125.761 -87785.714 155078.142 -87880.952 155030.523 -87928.571 154935.285 -87976.19 154554.333 -87976.19 M 155887.666 -87928.571 155554.333 -87928.571 M 155554.333 -88452.38 155554.333 -87452.38 156030.523 -87452.38 M 156840.047 -87785.714 156840.047 -88452.38 M 156601.952 -87404.761 156363.857 -88119.047 156982.904 -88119.047 M 164611.095 -87500 164515.857 -87452.38 164373 -87452.38 164230.142 -87500 164134.904 -87595.238 164087.285 -87690.476 164039.666 -87880.952 164039.666 -88023.809 164087.285 -88214.285 164134.904 -88309.523 164230.142 -88404.761 164373 -88452.38 164468.238 -88452.38 164611.095 -88404.761 164658.714 -88357.142 164658.714 -88023.809 164468.238 -88023.809 M 165087.285 -88452.38 165087.285 -87452.38 165658.714 -88452.38 165658.714 -87452.38 M 166134.904 -88452.38 166134.904 -87452.38 166373 -87452.38 166515.857 -87500 166611.095 -87595.238 166658.714 -87690.476 166706.333 -87880.952 166706.333 -88023.809 166658.714 -88214.285 166611.095 -88309.523 166515.857 -88404.761 166373 -88452.38 166134.904 -88452.38 M 154554.333 -93532.38 154554.333 -92532.38 154935.285 -92532.38 155030.523 -92580 155078.142 -92627.619 155125.761 -92722.857 155125.761 -92865.714 155078.142 -92960.952 155030.523 -93008.571 154935.285 -93056.19 154554.333 -93056.19 M 155887.666 -93008.571 155554.333 -93008.571 M 155554.333 -93532.38 155554.333 -92532.38 156030.523 -92532.38 M 156840.047 -92532.38 156649.571 -92532.38 156554.333 -92580 156506.714 -92627.619 156411.476 -92770.476 156363.857 -92960.952 156363.857 -93341.904 156411.476 -93437.142 156459.095 -93484.761 156554.333 -93532.38 156744.809 -93532.38 156840.047 -93484.761 156887.666 -93437.142 156935.285 -93341.904 156935.285 -93103.809 156887.666 -93008.571 156840.047 -92960.952 156744.809 -92913.333 156554.333 -92913.333 156459.095 -92960.952 156411.476 -93008.571 156363.857 -93103.809 M 164611.095 -92580 164515.857 -92532.38 164373 -92532.38 164230.142 -92580 164134.904 -92675.238 164087.285 -92770.476 164039.666 -92960.952 164039.666 -93103.809 164087.285 -93294.285 164134.904 -93389.523 164230.142 -93484.761 164373 -93532.38 164468.238 -93532.38 164611.095 -93484.761 164658.714 -93437.142 164658.714 -93103.809 164468.238 -93103.809 M 165087.285 -93532.38 165087.285 -92532.38 165658.714 -93532.38 165658.714 -92532.38 M 166134.904 -93532.38 166134.904 -92532.38 166373 -92532.38 166515.857 -92580 166611.095 -92675.238 166658.714 -92770.476 166706.333 -92960.952 166706.333 -93103.809 166658.714 -93294.285 166611.095 -93389.523 166515.857 -93484.761 166373 -93532.38 166134.904 -93532.38 M 164611.095 -95120 164515.857 -95072.38 164373 -95072.38 164230.142 -95120 164134.904 -95215.238 164087.285 -95310.476 164039.666 -95500.952 164039.666 -95643.809 164087.285 -95834.285 164134.904 -95929.523 164230.142 -96024.761 164373 -96072.38 164468.238 -96072.38 164611.095 -96024.761 164658.714 -95977.142 164658.714 -95643.809 164468.238 -95643.809 M 165087.285 -96072.38 165087.285 -95072.38 165658.714 -96072.38 165658.714 -95072.38 M 166134.904 -96072.38 166134.904 -95072.38 166373 -95072.38 166515.857 -95120 166611.095 -95215.238 166658.714 -95310.476 166706.333 -95500.952 166706.333 -95643.809 166658.714 -95834.285 166611.095 -95929.523 166515.857 -96024.761 166373 -96072.38 166134.904 -96072.38 M 154554.333 -96072.38 154554.333 -95072.38 154935.285 -95072.38 155030.523 -95120 155078.142 -95167.619 155125.761 -95262.857 155125.761 -95405.714 155078.142 -95500.952 155030.523 -95548.571 154935.285 -95596.19 154554.333 -95596.19 M 155887.666 -95548.571 155554.333 -95548.571 M 155554.333 -96072.38 155554.333 -95072.38 156030.523 -95072.38 M 156316.238 -95072.38 156982.904 -95072.38 156554.333 -96072.38 M 164611.095 -90040 164515.857 -89992.38 164373 -89992.38 164230.142 -90040 164134.904 -90135.238 164087.285 -90230.476 164039.666 -90420.952 164039.666 -90563.809 164087.285 -90754.285 164134.904 -90849.523 164230.142 -90944.761 164373 -90992.38 164468.238 -90992.38 164611.095 -90944.761 164658.714 -90897.142 164658.714 -90563.809 164468.238 -90563.809 M 165087.285 -90992.38 165087.285 -89992.38 165658.714 -90992.38 165658.714 -89992.38 M 166134.904 -90992.38 166134.904 -89992.38 166373 -89992.38 166515.857 -90040 166611.095 -90135.238 166658.714 -90230.476 166706.333 -90420.952 166706.333 -90563.809 166658.714 -90754.285 166611.095 -90849.523 166515.857 -90944.761 166373 -90992.38 166134.904 -90992.38" fill="none" stroke-width="150"/><path d="M 144540 -99500 143770 -99500 M 143770 -100870 143770 -98130 M 136460 -99500 137230 -99500 M 137230 -98130 137230 -100870 143770 -100870 M 143770 -98130 137230 -98130 M 132000 -112560 132000 -113330 M 133370 -113330 130630 -113330 M 132000 -120640 132000 -119870 M 130630 -113330 130630 -119870 133370 -119870 133370 -113330 M 127354 -89884 127354 -83344 M 124614 -83344 124614 -89884 127354 -89884 M 125984 -90654 125984 -89884 M 125984 -82574 125984 -83344 M 127354 -83344 124614 -83344 M 118577 -69264 118577 -69420 M 118577 -71580 118577 -71736 M 121178.13 -69420.163 A 1499.9998745 1499.9998745 0 0 1 119096.039 -69420 M 121809.335 -69421.392 A 1989.9998919 1989.9998919 0 0 1 118577 -69264.484 M 119096.039 -71580 A 1499.9999345 1499.9999345 0 0 1 121178.13 -71579.837 M 118577 -71735.516 A 1989.9999463 1989.9999463 0 0 1 121809.335 -71578.608 M 116455 -130770 115830 -130770 M 115830 -126730 115830 -130770 M 118670 -130770 118045 -130770 M 116455 -126730 115830 -126730 M 118670 -126730 118045 -126730 M 118670 -126730 118670 -130770 M 115318 -84172 116318 -84172 M 115318 -85172 115318 -84172 M 115618 -84432 121618 -84432 121618 -97432 115618 -97432 115618 -84432 M 129670 -102520 129670 -98480 M 126830 -98480 127455 -98480 M 126830 -102520 127455 -102520 M 129045 -98480 129670 -98480 M 129045 -102520 129670 -102520 M 126830 -102520 126830 -98480 M 159700 -78250 161200 -78250 M 161200 -71250 159700 -71250 M 163700 -77000 163700 -72500 M 157200 -72500 157200 -77000" fill="none" stroke-width="120"/><path d="M 151219.727 -90116.312 152294.549 -90677.887 153149.2 -91707.05 153394.532 -92143.692 153753.903 -93409.565 153622.205 -94727.69 153042.975 -95950.333 152059.749 -96929.76 151965.547 -96992.79 150948.638 -97651.685 150945.106 -102529.545 150941.573 -107407.404 152049.29 -107739.284 152854.797 -108060.276 153447.06 -108434.799 153524.116 -108513.503 153715.93 -108899.333 153520.598 -109307.668 153264.961 -109582.415 152873.536 -109896.266 152368.905 -110093.835 151608.361 -110206.886 150449.198 -110267.18 150149.124 -110275.915 148946.071 -110278.779 147908.842 -110228.141 147209.891 -110134.231 147078.856 -110093.795 146230.996 -109571.634 145935.891 -109006.404 146183.318 -108449.121 146963.052 -107950.801 147550.709 -107739.284 148658.427 -107407.404 148654.894 -102529.545 148651.361 -97651.685 147634.452 -96992.79 146620.978 -96039.037 146008.039 -94830.323 145839.172 -93514.382 146157.912 -92238.951 146205.468 -92143.692 147016.32 -90950.206 148007.763 -90248.507 149304.528 -89962.338 149800 -89946.067 151219.727 -90116.312"/><path d="M 154707.008 -102488.345 157515.519 -103679.932 159916.506 -104717.273 161885.95 -105589.524 163399.832 -106285.842 164434.133 -106795.385 164964.835 -107107.309 164996.025 -107133.177 165249.192 -107473.776 165402.818 -108018.084 165478.165 -108891.571 165496.629 -110087.183 165476.852 -111275.102 165424.121 -112279.009 165348.333 -112935.558 165316.665 -113057.126 165028.558 -113289.54 164305.426 -113729.377 163226.404 -114336.197 161870.627 -115069.561 160317.231 -115889.029 158645.351 -116754.163 156934.124 -117624.523 155262.683 -118459.669 153710.166 -119219.163 152355.708 -119862.564 151278.443 -120349.434 150557.508 -120639.333 150370.786 -120694.674 149518.197 -120732.113 148943.82 -120634.845 148336.7 -120399.65 147353.856 -119956.218 146074.568 -119345.527 144578.117 -118608.557 142943.786 -117786.287 141250.855 -116919.697 139578.607 -116049.765 138006.321 -115217.471 136613.281 -114463.794 135478.766 -113829.713 134682.059 -113356.208 134302.441 -113084.257 134283.314 -113057.073 134201.552 -112569.17 134139.208 -111673.901 134106.18 -110534.609 134103.371 -110087.183 134125.686 -108802.19 134206.808 -107961.277 134368 -107438.972 134603.975 -107133.177 135066.311 -106848.186 136035.421 -106364.144 137487.286 -105691.893 139397.889 -104842.276 141743.21 -103826.136 144499.229 -102654.315 144892.991 -102488.345 145836.544 -102091.015 145749.171 -103244.646 145661.797 -104398.278 141523.595 -106176.526 140061.76 -106803.487 138750.808 -107363.481 137696.036 -107811.7 137002.744 -108103.335 136814.606 -108180.384 136722.425 -108300.901 136893.382 -108515.725 137372.954 -108852.11 138206.618 -109337.31 139439.851 -109998.581 141118.129 -110863.175 142237.078 -111430.055 144173.358 -112401.862 145681.083 -113141.599 146838.168 -113680.421 147722.526 -114049.482 148412.073 -114279.936 148984.722 -114402.937 149518.387 -114449.64 149800 -114454.117 150343.739 -114434.279 150886.815 -114353.996 151507.14 -114182.114 152282.629 -113887.479 153291.197 -113438.935 154610.757 -112805.33 156319.224 -111955.508 157362.921 -111430.055 159303.048 -110443.104 160773.33 -109674.338 161819.244 -109096.504 162486.267 -108682.347 162819.876 -108404.614 162865.548 -108236.05 162785.393 -108180.384 162333.641 -107993.039 161462.976 -107624.67 160278.698 -107120.087 158886.105 -106524.097 158076.404 -106176.526 153938.202 -104398.278 153850.829 -103244.646 153763.455 -102091.015 154707.008 -102488.345"/><path d="M 135210 -128815.331 134960 -129248.344 M 134710 -128815.331 135210 -128815.331 M 125015 -129709.669 155985 -129709.669 M 125015 -144249.669 125015 -129709.669 M 155985 -129709.669 155985 -144249.669 M 134960 -129248.344 134710 -128815.331 M 123040 -123001 123040 -105101 M 121790 -123001 123040 -123001 M 115540 -123061 126040 -123061 M 126040 -105041 115540 -105041 115540 -123061 M 118540 -123001 119790 -123001 M 126040 -123061 126040 -105041 M 118540 -105101 118540 -123001 M 123040 -105101 118540 -105101 M 121790 -123001 A 1000 1000 0 0 1 119790 -123001 M 149580 -55510 131460 -55510 M 146580 -55570 141520 -55570 M 149580 -86230 149580 -55510 M 134460 -86170 146580 -86170 M 134460 -55570 134460 -86170 M 131460 -86230 149580 -86230 M 146580 -86170 146580 -55570 M 139520 -55570 134460 -55570 M 131460 -55510 131460 -86230 M 139520 -55570 A 1000 1000 0 0 1 141520 -55570 M 163095 -86670 163095 -96950 M 160495 -86670 163095 -86670 M 157895 -88000 157895 -86670 159225 -86670 M 157895 -96950 163095 -96950 M 157895 -89270 157895 -96950 M 160495 -89270 160495 -86670 M 157895 -89270 160495 -89270" fill="none" stroke-width="120"/></g></g><g id="AJkBAfvdipsTCI7Yceq7_top_soldermask"><use xlink:href="#X8nLYxzU2ruRW_aH9hod_pad-10" x="135420" y="-99500"/><use xlink:href="#X8nLYxzU2ruRW_aH9hod_pad-11" x="145580" y="-99500"/><use xlink:href="#X8nLYxzU2ruRW_aH9hod_pad-10" x="132000" y="-111520"/><use xlink:href="#X8nLYxzU2ruRW_aH9hod_pad-11" x="132000" y="-121680"/><use xlink:href="#X8nLYxzU2ruRW_aH9hod_pad-10" x="125984" y="-91694"/><use xlink:href="#X8nLYxzU2ruRW_aH9hod_pad-11" x="125984" y="-81534"/><use xlink:href="#X8nLYxzU2ruRW_aH9hod_pad-12" x="163000" y="-140000"/><use xlink:href="#X8nLYxzU2ruRW_aH9hod_pad-13" x="118617" y="-70500"/><use xlink:href="#X8nLYxzU2ruRW_aH9hod_pad-14" x="121657" y="-70500"/><use xlink:href="#X8nLYxzU2ruRW_aH9hod_pad-12" x="163000" y="-60000"/><use xlink:href="#X8nLYxzU2ruRW_aH9hod_pad-10" x="117250" y="-127500"/><use xlink:href="#X8nLYxzU2ruRW_aH9hod_pad-10" x="117250" y="-130000"/><use xlink:href="#X8nLYxzU2ruRW_aH9hod_pad-15" x="118618" y="-88392"/><use xlink:href="#X8nLYxzU2ruRW_aH9hod_pad-16" x="118618" y="-90932"/><use xlink:href="#X8nLYxzU2ruRW_aH9hod_pad-16" x="118618" y="-93472"/><use xlink:href="#X8nLYxzU2ruRW_aH9hod_pad-10" x="128250" y="-101750"/><use xlink:href="#X8nLYxzU2ruRW_aH9hod_pad-10" x="128250" y="-99250"/><use xlink:href="#X8nLYxzU2ruRW_aH9hod_pad-17" x="158200" y="-78000"/><use xlink:href="#X8nLYxzU2ruRW_aH9hod_pad-17" x="158200" y="-71500"/><use xlink:href="#X8nLYxzU2ruRW_aH9hod_pad-17" x="162700" y="-78000"/><use xlink:href="#X8nLYxzU2ruRW_aH9hod_pad-17" x="162700" y="-71500"/><use xlink:href="#X8nLYxzU2ruRW_aH9hod_pad-18" x="153000" y="-132989.669"/><use xlink:href="#X8nLYxzU2ruRW_aH9hod_pad-18" x="128000" y="-132989.669"/><use xlink:href="#X8nLYxzU2ruRW_aH9hod_pad-19" x="134960" y="-131319.669"/><use xlink:href="#X8nLYxzU2ruRW_aH9hod_pad-20" x="137730" y="-131319.669"/><use xlink:href="#X8nLYxzU2ruRW_aH9hod_pad-20" x="140500" y="-131319.669"/><use xlink:href="#X8nLYxzU2ruRW_aH9hod_pad-20" x="143270" y="-131319.669"/><use xlink:href="#X8nLYxzU2ruRW_aH9hod_pad-20" x="146040" y="-131319.669"/><use xlink:href="#X8nLYxzU2ruRW_aH9hod_pad-20" x="136345" y="-134659.669"/><use xlink:href="#X8nLYxzU2ruRW_aH9hod_pad-20" x="139115" y="-134659.669"/><use xlink:href="#X8nLYxzU2ruRW_aH9hod_pad-20" x="141885" y="-134659.669"/><use xlink:href="#X8nLYxzU2ruRW_aH9hod_pad-20" x="144655" y="-134659.669"/><use xlink:href="#X8nLYxzU2ruRW_aH9hod_pad-21" x="124600" y="-121671"/><use xlink:href="#X8nLYxzU2ruRW_aH9hod_pad-22" x="124600" y="-119131"/><use xlink:href="#X8nLYxzU2ruRW_aH9hod_pad-22" x="124600" y="-116591"/><use xlink:href="#X8nLYxzU2ruRW_aH9hod_pad-22" x="124600" y="-114051"/><use xlink:href="#X8nLYxzU2ruRW_aH9hod_pad-22" x="124600" y="-111511"/><use xlink:href="#X8nLYxzU2ruRW_aH9hod_pad-22" x="124600" y="-108971"/><use xlink:href="#X8nLYxzU2ruRW_aH9hod_pad-22" x="124600" y="-106431"/><use xlink:href="#X8nLYxzU2ruRW_aH9hod_pad-22" x="116980" y="-106431"/><use xlink:href="#X8nLYxzU2ruRW_aH9hod_pad-22" x="116980" y="-108971"/><use xlink:href="#X8nLYxzU2ruRW_aH9hod_pad-22" x="116980" y="-111511"/><use xlink:href="#X8nLYxzU2ruRW_aH9hod_pad-22" x="116980" y="-114051"/><use xlink:href="#X8nLYxzU2ruRW_aH9hod_pad-22" x="116980" y="-116591"/><use xlink:href="#X8nLYxzU2ruRW_aH9hod_pad-22" x="116980" y="-119131"/><use xlink:href="#X8nLYxzU2ruRW_aH9hod_pad-22" x="116980" y="-121671"/><use xlink:href="#X8nLYxzU2ruRW_aH9hod_pad-12" x="118000" y="-60000"/><use xlink:href="#X8nLYxzU2ruRW_aH9hod_pad-21" x="132900" y="-56900"/><use xlink:href="#X8nLYxzU2ruRW_aH9hod_pad-22" x="132900" y="-59440"/><use xlink:href="#X8nLYxzU2ruRW_aH9hod_pad-22" x="132900" y="-61980"/><use xlink:href="#X8nLYxzU2ruRW_aH9hod_pad-22" x="132900" y="-64520"/><use xlink:href="#X8nLYxzU2ruRW_aH9hod_pad-22" x="132900" y="-67060"/><use xlink:href="#X8nLYxzU2ruRW_aH9hod_pad-22" x="132900" y="-69600"/><use xlink:href="#X8nLYxzU2ruRW_aH9hod_pad-22" x="132900" y="-72140"/><use xlink:href="#X8nLYxzU2ruRW_aH9hod_pad-22" x="132900" y="-74680"/><use xlink:href="#X8nLYxzU2ruRW_aH9hod_pad-22" x="132900" y="-77220"/><use xlink:href="#X8nLYxzU2ruRW_aH9hod_pad-22" x="132900" y="-79760"/><use xlink:href="#X8nLYxzU2ruRW_aH9hod_pad-22" x="132900" y="-82300"/><use xlink:href="#X8nLYxzU2ruRW_aH9hod_pad-22" x="132900" y="-84840"/><use xlink:href="#X8nLYxzU2ruRW_aH9hod_pad-22" x="148140" y="-84840"/><use xlink:href="#X8nLYxzU2ruRW_aH9hod_pad-22" x="148140" y="-82300"/><use xlink:href="#X8nLYxzU2ruRW_aH9hod_pad-22" x="148140" y="-79760"/><use xlink:href="#X8nLYxzU2ruRW_aH9hod_pad-22" x="148140" y="-77220"/><use xlink:href="#X8nLYxzU2ruRW_aH9hod_pad-22" x="148140" y="-74680"/><use xlink:href="#X8nLYxzU2ruRW_aH9hod_pad-22" x="148140" y="-72140"/><use xlink:href="#X8nLYxzU2ruRW_aH9hod_pad-22" x="148140" y="-69600"/><use xlink:href="#X8nLYxzU2ruRW_aH9hod_pad-22" x="148140" y="-67060"/><use xlink:href="#X8nLYxzU2ruRW_aH9hod_pad-22" x="148140" y="-64520"/><use xlink:href="#X8nLYxzU2ruRW_aH9hod_pad-22" x="148140" y="-61980"/><use xlink:href="#X8nLYxzU2ruRW_aH9hod_pad-22" x="148140" y="-59440"/><use xlink:href="#X8nLYxzU2ruRW_aH9hod_pad-22" x="148140" y="-56900"/><use xlink:href="#X8nLYxzU2ruRW_aH9hod_pad-12" x="118000" y="-140000"/><use xlink:href="#X8nLYxzU2ruRW_aH9hod_pad-23" x="159225" y="-88000"/><use xlink:href="#X8nLYxzU2ruRW_aH9hod_pad-24" x="161765" y="-88000"/><use xlink:href="#X8nLYxzU2ruRW_aH9hod_pad-24" x="159225" y="-90540"/><use xlink:href="#X8nLYxzU2ruRW_aH9hod_pad-24" x="161765" y="-90540"/><use xlink:href="#X8nLYxzU2ruRW_aH9hod_pad-24" x="159225" y="-93080"/><use xlink:href="#X8nLYxzU2ruRW_aH9hod_pad-24" x="161765" y="-93080"/><use xlink:href="#X8nLYxzU2ruRW_aH9hod_pad-24" x="159225" y="-95620"/><use xlink:href="#X8nLYxzU2ruRW_aH9hod_pad-24" x="161765" y="-95620"/></g><g id="AJkBAfvdipsTCI7Yceq7_top_copper"><use xlink:href="#eZQ1c_vVYM5jFUTRgu0o_pad-10" x="135420" y="-99500"/><use xlink:href="#eZQ1c_vVYM5jFUTRgu0o_pad-11" x="145580" y="-99500"/><use xlink:href="#eZQ1c_vVYM5jFUTRgu0o_pad-10" x="132000" y="-111520"/><use xlink:href="#eZQ1c_vVYM5jFUTRgu0o_pad-11" x="132000" y="-121680"/><use xlink:href="#eZQ1c_vVYM5jFUTRgu0o_pad-10" x="125984" y="-91694"/><use xlink:href="#eZQ1c_vVYM5jFUTRgu0o_pad-11" x="125984" y="-81534"/><use xlink:href="#eZQ1c_vVYM5jFUTRgu0o_pad-12" x="118617" y="-70500"/><use xlink:href="#eZQ1c_vVYM5jFUTRgu0o_pad-13" x="121657" y="-70500"/><use xlink:href="#eZQ1c_vVYM5jFUTRgu0o_pad-10" x="117250" y="-127500"/><use xlink:href="#eZQ1c_vVYM5jFUTRgu0o_pad-10" x="117250" y="-130000"/><use xlink:href="#eZQ1c_vVYM5jFUTRgu0o_pad-14" x="118618" y="-88392"/><use xlink:href="#eZQ1c_vVYM5jFUTRgu0o_pad-15" x="118618" y="-90932"/><use xlink:href="#eZQ1c_vVYM5jFUTRgu0o_pad-15" x="118618" y="-93472"/><use xlink:href="#eZQ1c_vVYM5jFUTRgu0o_pad-10" x="128250" y="-101750"/><use xlink:href="#eZQ1c_vVYM5jFUTRgu0o_pad-10" x="128250" y="-99250"/><use xlink:href="#eZQ1c_vVYM5jFUTRgu0o_pad-16" x="158200" y="-78000"/><use xlink:href="#eZQ1c_vVYM5jFUTRgu0o_pad-16" x="158200" y="-71500"/><use xlink:href="#eZQ1c_vVYM5jFUTRgu0o_pad-16" x="162700" y="-78000"/><use xlink:href="#eZQ1c_vVYM5jFUTRgu0o_pad-16" x="162700" y="-71500"/><use xlink:href="#eZQ1c_vVYM5jFUTRgu0o_pad-17" x="153000" y="-132989.669"/><use xlink:href="#eZQ1c_vVYM5jFUTRgu0o_pad-17" x="128000" y="-132989.669"/><use xlink:href="#eZQ1c_vVYM5jFUTRgu0o_pad-18" x="134960" y="-131319.669"/><use xlink:href="#eZQ1c_vVYM5jFUTRgu0o_pad-19" x="137730" y="-131319.669"/><use xlink:href="#eZQ1c_vVYM5jFUTRgu0o_pad-19" x="140500" y="-131319.669"/><use xlink:href="#eZQ1c_vVYM5jFUTRgu0o_pad-19" x="143270" y="-131319.669"/><use xlink:href="#eZQ1c_vVYM5jFUTRgu0o_pad-19" x="146040" y="-131319.669"/><use xlink:href="#eZQ1c_vVYM5jFUTRgu0o_pad-19" x="136345" y="-134659.669"/><use xlink:href="#eZQ1c_vVYM5jFUTRgu0o_pad-19" x="139115" y="-134659.669"/><use xlink:href="#eZQ1c_vVYM5jFUTRgu0o_pad-19" x="141885" y="-134659.669"/><use xlink:href="#eZQ1c_vVYM5jFUTRgu0o_pad-19" x="144655" y="-134659.669"/><use xlink:href="#eZQ1c_vVYM5jFUTRgu0o_pad-20" x="124600" y="-121671"/><use xlink:href="#eZQ1c_vVYM5jFUTRgu0o_pad-21" x="124600" y="-119131"/><use xlink:href="#eZQ1c_vVYM5jFUTRgu0o_pad-21" x="124600" y="-116591"/><use xlink:href="#eZQ1c_vVYM5jFUTRgu0o_pad-21" x="124600" y="-114051"/><use xlink:href="#eZQ1c_vVYM5jFUTRgu0o_pad-21" x="124600" y="-111511"/><use xlink:href="#eZQ1c_vVYM5jFUTRgu0o_pad-21" x="124600" y="-108971"/><use xlink:href="#eZQ1c_vVYM5jFUTRgu0o_pad-21" x="124600" y="-106431"/><use xlink:href="#eZQ1c_vVYM5jFUTRgu0o_pad-21" x="116980" y="-106431"/><use xlink:href="#eZQ1c_vVYM5jFUTRgu0o_pad-21" x="116980" y="-108971"/><use xlink:href="#eZQ1c_vVYM5jFUTRgu0o_pad-21" x="116980" y="-111511"/><use xlink:href="#eZQ1c_vVYM5jFUTRgu0o_pad-21" x="116980" y="-114051"/><use xlink:href="#eZQ1c_vVYM5jFUTRgu0o_pad-21" x="116980" y="-116591"/><use xlink:href="#eZQ1c_vVYM5jFUTRgu0o_pad-21" x="116980" y="-119131"/><use xlink:href="#eZQ1c_vVYM5jFUTRgu0o_pad-21" x="116980" y="-121671"/><use xlink:href="#eZQ1c_vVYM5jFUTRgu0o_pad-20" x="132900" y="-56900"/><use xlink:href="#eZQ1c_vVYM5jFUTRgu0o_pad-21" x="132900" y="-59440"/><use xlink:href="#eZQ1c_vVYM5jFUTRgu0o_pad-21" x="132900" y="-61980"/><use xlink:href="#eZQ1c_vVYM5jFUTRgu0o_pad-21" x="132900" y="-64520"/><use xlink:href="#eZQ1c_vVYM5jFUTRgu0o_pad-21" x="132900" y="-67060"/><use xlink:href="#eZQ1c_vVYM5jFUTRgu0o_pad-21" x="132900" y="-69600"/><use xlink:href="#eZQ1c_vVYM5jFUTRgu0o_pad-21" x="132900" y="-72140"/><use xlink:href="#eZQ1c_vVYM5jFUTRgu0o_pad-21" x="132900" y="-74680"/><use xlink:href="#eZQ1c_vVYM5jFUTRgu0o_pad-21" x="132900" y="-77220"/><use xlink:href="#eZQ1c_vVYM5jFUTRgu0o_pad-21" x="132900" y="-79760"/><use xlink:href="#eZQ1c_vVYM5jFUTRgu0o_pad-21" x="132900" y="-82300"/><use xlink:href="#eZQ1c_vVYM5jFUTRgu0o_pad-21" x="132900" y="-84840"/><use xlink:href="#eZQ1c_vVYM5jFUTRgu0o_pad-21" x="148140" y="-84840"/><use xlink:href="#eZQ1c_vVYM5jFUTRgu0o_pad-21" x="148140" y="-82300"/><use xlink:href="#eZQ1c_vVYM5jFUTRgu0o_pad-21" x="148140" y="-79760"/><use xlink:href="#eZQ1c_vVYM5jFUTRgu0o_pad-21" x="148140" y="-77220"/><use xlink:href="#eZQ1c_vVYM5jFUTRgu0o_pad-21" x="148140" y="-74680"/><use xlink:href="#eZQ1c_vVYM5jFUTRgu0o_pad-21" x="148140" y="-72140"/><use xlink:href="#eZQ1c_vVYM5jFUTRgu0o_pad-21" x="148140" y="-69600"/><use xlink:href="#eZQ1c_vVYM5jFUTRgu0o_pad-21" x="148140" y="-67060"/><use xlink:href="#eZQ1c_vVYM5jFUTRgu0o_pad-21" x="148140" y="-64520"/><use xlink:href="#eZQ1c_vVYM5jFUTRgu0o_pad-21" x="148140" y="-61980"/><use xlink:href="#eZQ1c_vVYM5jFUTRgu0o_pad-21" x="148140" y="-59440"/><use xlink:href="#eZQ1c_vVYM5jFUTRgu0o_pad-21" x="148140" y="-56900"/><use xlink:href="#eZQ1c_vVYM5jFUTRgu0o_pad-22" x="159225" y="-88000"/><use xlink:href="#eZQ1c_vVYM5jFUTRgu0o_pad-23" x="161765" y="-88000"/><use xlink:href="#eZQ1c_vVYM5jFUTRgu0o_pad-23" x="159225" y="-90540"/><use xlink:href="#eZQ1c_vVYM5jFUTRgu0o_pad-23" x="161765" y="-90540"/><use xlink:href="#eZQ1c_vVYM5jFUTRgu0o_pad-23" x="159225" y="-93080"/><use xlink:href="#eZQ1c_vVYM5jFUTRgu0o_pad-23" x="161765" y="-93080"/><use xlink:href="#eZQ1c_vVYM5jFUTRgu0o_pad-23" x="159225" y="-95620"/><use xlink:href="#eZQ1c_vVYM5jFUTRgu0o_pad-23" x="161765" y="-95620"/><use xlink:href="#eZQ1c_vVYM5jFUTRgu0o_pad-24" x="139500" y="-72140"/><use xlink:href="#eZQ1c_vVYM5jFUTRgu0o_pad-24" x="132500" y="-127500"/><use xlink:href="#eZQ1c_vVYM5jFUTRgu0o_pad-24" x="135500" y="-96500"/><path d="M 132900 -67060 135560 -67060 M 138300 -124048.528 134960 -127388.528 M 137100 -68600 137100 -74802.944 M 135560 -67060 137100 -68600 M 134960 -127388.528 134960 -131569.669 M 137100 -74802.944 138300 -76002.944 138300 -124048.528 M 138900 -75754.416 138900 -124297.056 M 132900 -59440 136240 -59440 M 137730 -125467.056 137730 -131569.669 M 136240 -59440 137700 -60900 137700 -74554.416 138900 -75754.416 M 138900 -124297.056 137730 -125467.056 M 138300 -74305.888 139500 -75505.888 139500 -124000 140500 -125000 M 132900 -56900 136200 -56900 M 138300 -59000 138300 -74305.888 M 140500 -125000 140500 -131569.669 M 136200 -56900 138300 -59000 M 143270 -105470 143270 -131569.669 M 139500 -74657.36 140100 -75257.36 140100 -102300 M 139500 -72140 139500 -74657.36 M 140100 -102300 143270 -105470 M 148140 -84840 145580 -87400 M 145580 -99500 145580 -126100 146040 -126560 146040 -131569.669 M 145580 -87400 145580 -99500 M 137700 -76251.472 137700 -123800 M 132900 -69600 135225 -69600 136500 -70875 M 136500 -75051.472 137700 -76251.472 M 132500 -133000 133909.669 -134409.669 136345 -134409.669 M 132500 -129000 132500 -133000 M 136500 -70875 136500 -75051.472 M 137700 -123800 132500 -129000" fill="none" stroke-width="300"/><path d="M 158700 -134800 153600 -139900 M 123700 -136200 127400 -139900 M 158700 -103100 158700 -134800 M 117250 -121941 116980 -121671 M 117250 -127500 117250 -121941 M 117278 -127528 117250 -127500 M 123678 -127528 117278 -127528 M 139115 -139885 139100 -139900 M 148140 -64520 151520 -64520 M 128250 -122956 123678 -127528 M 153000 -97400 158700 -103100 M 139115 -134409.669 139115 -139885 M 123700 -136200 123700 -127550 M 121661 -101750 128250 -101750 M 153000 -66000 153000 -97400 M 153600 -139900 139100 -139900 M 128250 -101750 128250 -122956 M 116980 -106431 121661 -101750 M 127400 -139900 139100 -139900 M 123700 -127550 123678 -127528 M 151520 -64520 153000 -66000" fill="none" stroke-width="1000"/><path d="M 134500 -114020 132000 -111520 132900 -110620 M 134500 -125500 134500 -114020 M 132900 -110620 132900 -84840 M 132500 -127500 134500 -125500 M 152230 -61980 158200 -67950 M 158200 -71500 158200 -78000 M 148140 -61980 152230 -61980 M 158200 -67950 158200 -71500" fill="none" stroke-width="300"/><path d="M 121407 -76957 121407 -70500 M 125984 -81534 121407 -76957" fill="none" stroke-width="500"/><path d="M 123608 -88392 129030 -82970 M 130300 -79760 132900 -79760 M 129030 -82970 129030 -81030 130300 -79760 M 118618 -88392 123608 -88392 M 120904 -109982 121915 -108971 M 120909 -111511 120904 -111506 120904 -109982 M 137100 -76500 135280 -74680 M 121915 -108971 124600 -108971 M 124600 -111511 120909 -111511 M 119369 -119131 120904 -117596 M 137100 -94900 137100 -76500 M 120904 -117596 120904 -111506 M 135500 -96500 137100 -94900 M 116980 -119131 119369 -119131 M 135280 -74680 132900 -74680" fill="none" stroke-width="300"/><path d="M 116980 -108971 115321 -108971 M 114046 -107696 114046 -103505 M 121678 -99822 125984 -95516 125984 -91694 M 115321 -108971 114046 -107696 M 117729 -99822 121678 -99822 M 114046 -103505 117729 -99822" fill="none" stroke-width="500"/></g><g id="AJkBAfvdipsTCI7Yceq7_top_drill1" transform="scale(25.4,25.4)"><use xlink:href="#QzsaA1XW7YDq_y09DxAC_pad-1" x="5216.5" y="-5019.7"/><use xlink:href="#QzsaA1XW7YDq_y09DxAC_pad-1" x="5334.6" y="-3799.2"/><use xlink:href="#QzsaA1XW7YDq_y09DxAC_pad-1" x="5492.1" y="-2840.2"/><use xlink:href="#QzsaA1XW7YDq_y09DxAC_pad-2" x="4605.5" y="-4190.2"/><use xlink:href="#QzsaA1XW7YDq_y09DxAC_pad-2" x="4605.5" y="-4290.2"/><use xlink:href="#QzsaA1XW7YDq_y09DxAC_pad-2" x="4605.5" y="-4390.2"/><use xlink:href="#QzsaA1XW7YDq_y09DxAC_pad-2" x="4605.5" y="-4490.2"/><use xlink:href="#QzsaA1XW7YDq_y09DxAC_pad-2" x="4605.5" y="-4590.2"/><use xlink:href="#QzsaA1XW7YDq_y09DxAC_pad-2" x="4605.5" y="-4690.2"/><use xlink:href="#QzsaA1XW7YDq_y09DxAC_pad-2" x="4605.5" y="-4790.2"/><use xlink:href="#QzsaA1XW7YDq_y09DxAC_pad-2" x="4616.1" y="-5019.7"/><use xlink:href="#QzsaA1XW7YDq_y09DxAC_pad-2" x="4616.1" y="-5118.1"/><use xlink:href="#QzsaA1XW7YDq_y09DxAC_pad-2" x="4905.5" y="-4190.2"/><use xlink:href="#QzsaA1XW7YDq_y09DxAC_pad-2" x="4905.5" y="-4290.2"/><use xlink:href="#QzsaA1XW7YDq_y09DxAC_pad-2" x="4905.5" y="-4390.2"/><use xlink:href="#QzsaA1XW7YDq_y09DxAC_pad-2" x="4905.5" y="-4490.2"/><use xlink:href="#QzsaA1XW7YDq_y09DxAC_pad-2" x="4905.5" y="-4590.2"/><use xlink:href="#QzsaA1XW7YDq_y09DxAC_pad-2" x="4905.5" y="-4690.2"/><use xlink:href="#QzsaA1XW7YDq_y09DxAC_pad-2" x="4905.5" y="-4790.2"/><use xlink:href="#QzsaA1XW7YDq_y09DxAC_pad-2" x="4960" y="-3210"/><use xlink:href="#QzsaA1XW7YDq_y09DxAC_pad-2" x="4960" y="-3610"/><use xlink:href="#QzsaA1XW7YDq_y09DxAC_pad-2" x="5049.2" y="-3907.5"/><use xlink:href="#QzsaA1XW7YDq_y09DxAC_pad-2" x="5049.2" y="-4005.9"/><use xlink:href="#QzsaA1XW7YDq_y09DxAC_pad-2" x="5196.9" y="-4390.6"/><use xlink:href="#QzsaA1XW7YDq_y09DxAC_pad-2" x="5196.9" y="-4790.6"/><use xlink:href="#QzsaA1XW7YDq_y09DxAC_pad-2" x="5232.3" y="-2240.2"/><use xlink:href="#QzsaA1XW7YDq_y09DxAC_pad-2" x="5232.3" y="-2340.2"/><use xlink:href="#QzsaA1XW7YDq_y09DxAC_pad-2" x="5232.3" y="-2440.2"/><use xlink:href="#QzsaA1XW7YDq_y09DxAC_pad-2" x="5232.3" y="-2540.2"/><use xlink:href="#QzsaA1XW7YDq_y09DxAC_pad-2" x="5232.3" y="-2640.2"/><use xlink:href="#QzsaA1XW7YDq_y09DxAC_pad-2" x="5232.3" y="-2740.2"/><use xlink:href="#QzsaA1XW7YDq_y09DxAC_pad-2" x="5232.3" y="-2840.2"/><use xlink:href="#QzsaA1XW7YDq_y09DxAC_pad-2" x="5232.3" y="-2940.2"/><use xlink:href="#QzsaA1XW7YDq_y09DxAC_pad-2" x="5232.3" y="-3040.2"/><use xlink:href="#QzsaA1XW7YDq_y09DxAC_pad-2" x="5232.3" y="-3140.2"/><use xlink:href="#QzsaA1XW7YDq_y09DxAC_pad-2" x="5232.3" y="-3240.2"/><use xlink:href="#QzsaA1XW7YDq_y09DxAC_pad-2" x="5232.3" y="-3340.2"/><use xlink:href="#QzsaA1XW7YDq_y09DxAC_pad-2" x="5331.5" y="-3917.3"/><use xlink:href="#QzsaA1XW7YDq_y09DxAC_pad-2" x="5731.5" y="-3917.3"/><use xlink:href="#QzsaA1XW7YDq_y09DxAC_pad-2" x="5832.3" y="-2240.2"/><use xlink:href="#QzsaA1XW7YDq_y09DxAC_pad-2" x="5832.3" y="-2340.2"/><use xlink:href="#QzsaA1XW7YDq_y09DxAC_pad-2" x="5832.3" y="-2440.2"/><use xlink:href="#QzsaA1XW7YDq_y09DxAC_pad-2" x="5832.3" y="-2540.2"/><use xlink:href="#QzsaA1XW7YDq_y09DxAC_pad-2" x="5832.3" y="-2640.2"/><use xlink:href="#QzsaA1XW7YDq_y09DxAC_pad-2" x="5832.3" y="-2740.2"/><use xlink:href="#QzsaA1XW7YDq_y09DxAC_pad-2" x="5832.3" y="-2840.2"/><use xlink:href="#QzsaA1XW7YDq_y09DxAC_pad-2" x="5832.3" y="-2940.2"/><use xlink:href="#QzsaA1XW7YDq_y09DxAC_pad-2" x="5832.3" y="-3040.2"/><use xlink:href="#QzsaA1XW7YDq_y09DxAC_pad-2" x="5832.3" y="-3140.2"/><use xlink:href="#QzsaA1XW7YDq_y09DxAC_pad-2" x="5832.3" y="-3240.2"/><use xlink:href="#QzsaA1XW7YDq_y09DxAC_pad-2" x="5832.3" y="-3340.2"/><use xlink:href="#QzsaA1XW7YDq_y09DxAC_pad-3" x="4679.8" y="-2775.6"/><use xlink:href="#QzsaA1XW7YDq_y09DxAC_pad-3" x="4779.8" y="-2775.6"/><use xlink:href="#QzsaA1XW7YDq_y09DxAC_pad-4" x="4670" y="-3480"/><use xlink:href="#QzsaA1XW7YDq_y09DxAC_pad-4" x="4670" y="-3580"/><use xlink:href="#QzsaA1XW7YDq_y09DxAC_pad-4" x="4670" y="-3680"/><use xlink:href="#QzsaA1XW7YDq_y09DxAC_pad-4" x="5313.4" y="-5179.9"/><use xlink:href="#QzsaA1XW7YDq_y09DxAC_pad-4" x="5367.9" y="-5291.7"/><use xlink:href="#QzsaA1XW7YDq_y09DxAC_pad-4" x="5422.4" y="-5179.9"/><use xlink:href="#QzsaA1XW7YDq_y09DxAC_pad-4" x="5477" y="-5291.7"/><use xlink:href="#QzsaA1XW7YDq_y09DxAC_pad-4" x="5531.5" y="-5179.9"/><use xlink:href="#QzsaA1XW7YDq_y09DxAC_pad-4" x="5586" y="-5291.7"/><use xlink:href="#QzsaA1XW7YDq_y09DxAC_pad-4" x="5640.6" y="-5179.9"/><use xlink:href="#QzsaA1XW7YDq_y09DxAC_pad-4" x="5695.1" y="-5291.7"/><use xlink:href="#QzsaA1XW7YDq_y09DxAC_pad-4" x="5749.6" y="-5179.9"/><use xlink:href="#QzsaA1XW7YDq_y09DxAC_pad-4" x="6268.7" y="-3464.6"/><use xlink:href="#QzsaA1XW7YDq_y09DxAC_pad-4" x="6268.7" y="-3564.6"/><use xlink:href="#QzsaA1XW7YDq_y09DxAC_pad-4" x="6268.7" y="-3664.6"/><use xlink:href="#QzsaA1XW7YDq_y09DxAC_pad-4" x="6268.7" y="-3764.6"/><use xlink:href="#QzsaA1XW7YDq_y09DxAC_pad-4" x="6368.7" y="-3464.6"/><use xlink:href="#QzsaA1XW7YDq_y09DxAC_pad-4" x="6368.7" y="-3564.6"/><use xlink:href="#QzsaA1XW7YDq_y09DxAC_pad-4" x="6368.7" y="-3664.6"/><use xlink:href="#QzsaA1XW7YDq_y09DxAC_pad-4" x="6368.7" y="-3764.6"/><use xlink:href="#QzsaA1XW7YDq_y09DxAC_pad-5" x="6228.3" y="-2815"/><use xlink:href="#QzsaA1XW7YDq_y09DxAC_pad-5" x="6228.3" y="-3070.9"/><use xlink:href="#QzsaA1XW7YDq_y09DxAC_pad-5" x="6405.5" y="-2815"/><use xlink:href="#QzsaA1XW7YDq_y09DxAC_pad-5" x="6405.5" y="-3070.9"/><use xlink:href="#QzsaA1XW7YDq_y09DxAC_pad-6" x="5039.4" y="-5235.8"/><use xlink:href="#QzsaA1XW7YDq_y09DxAC_pad-6" x="6023.6" y="-5235.8"/></g><g id="AJkBAfvdipsTCI7Yceq7_top_drill2" transform="scale(25.4,25.4)"><use xlink:href="#wKz68T3oYHp7FGO5UfiH_pad-1" x="4645.7" y="-2362.2"/><use xlink:href="#wKz68T3oYHp7FGO5UfiH_pad-1" x="4645.7" y="-5511.8"/><use xlink:href="#wKz68T3oYHp7FGO5UfiH_pad-1" x="6417.3" y="-2362.2"/><use xlink:href="#wKz68T3oYHp7FGO5UfiH_pad-1" x="6417.3" y="-5511.8"/></g><clipPath id="AJkBAfvdipsTCI7Yceq7_top_outline"><path d="M 163000 -55000 118000 -55000 A 5000 5000 0 0 1 113000 -60000 L 113000 -140000 A 5000 5000 0 0 1 118000 -145000 L 163000 -145000 A 5000 5000 0 0 1 168000 -140000 L 168000 -60000 A 5000 5000 0 0 1 163000 -55000" fill="none" stroke-width="100"/></clipPath><mask id="AJkBAfvdipsTCI7Yceq7_top_mech-mask"><g fill="#000" stroke="#000"><rect x="113000" y="-145000" width="55000" height="90000" fill="#fff"/><use xlink:href="#AJkBAfvdipsTCI7Yceq7_top_drill1"/><use xlink:href="#AJkBAfvdipsTCI7Yceq7_top_drill2"/></g></mask><mask id="AJkBAfvdipsTCI7Yceq7_top_cf-mask"><g fill="#fff" stroke="#fff"><use xlink:href="#AJkBAfvdipsTCI7Yceq7_top_soldermask"/></g></mask><mask id="AJkBAfvdipsTCI7Yceq7_top_sm-mask"><g fill="#000" stroke="#000"><rect x="113000" y="-145000" width="55000" height="90000" fill="#fff"/><use xlink:href="#AJkBAfvdipsTCI7Yceq7_top_soldermask"/></g></mask></defs><g transform="translate(0,-200000) scale(1,-1)"><g mask="url(#AJkBAfvdipsTCI7Yceq7_top_mech-mask)" clip-path="url(#AJkBAfvdipsTCI7Yceq7_top_outline)"><rect x="113000" y="-145000" width="55000" height="90000" fill="currentColor" class="AJkBAfvdipsTCI7Yceq7_fr4"/><use xlink:href="#AJkBAfvdipsTCI7Yceq7_top_copper" fill="currentColor" stroke="currentColor" class="AJkBAfvdipsTCI7Yceq7_cu"/><use xlink:href="#AJkBAfvdipsTCI7Yceq7_top_copper" fill="currentColor" stroke="currentColor" class="AJkBAfvdipsTCI7Yceq7_cf" mask="url(#AJkBAfvdipsTCI7Yceq7_top_cf-mask)"/><g mask="url(#AJkBAfvdipsTCI7Yceq7_top_sm-mask)"><rect x="113000" y="-145000" width="55000" height="90000" fill="currentColor" class="AJkBAfvdipsTCI7Yceq7_sm"/><use xlink:href="#AJkBAfvdipsTCI7Yceq7_top_silkscreen" fill="currentColor" stroke="currentColor" class="AJkBAfvdipsTCI7Yceq7_ss"/></g></g></g></svg>