<svg version="1.1" xmlns="http://www.w3.org/2000/svg" xmlns:xlink="http://www.w3.org/1999/xlink" stroke-linecap="round" stroke-linejoin="round" stroke-width="0" fill-rule="evenodd" clip-rule="evenodd" id="FWOZyPNthhQYiLoQXi_H_top" viewBox="113000 -145000 55000 90000" width="55mm" height="90mm" class="w-100 h-100"><defs><style>.FWOZyPNthhQYiLoQXi_H_fr4 {color: #666666;}
.FWOZyPNthhQYiLoQXi_H_cu {color: #cccccc;}
.FWOZyPNthhQYiLoQXi_H_cf {color: #cc9933;}
.FWOZyPNthhQYiLoQXi_H_sm {color: #004200; opacity: 0.75;}
.FWOZyPNthhQYiLoQXi_H_ss {color: #ffffff;}
.FWOZyPNthhQYiLoQXi_H_sp {color: #999999;}
.FWOZyPNthhQYiLoQXi_H_out {color: #000000;}</style><circle cx="0" cy="0" r="800" id="PNK1Eblp9Z_lUXWMZoJB_pad-10"/><rect x="-800" y="-800" width="1600" height="1600" rx="800" ry="800" id="PNK1Eblp9Z_lUXWMZoJB_pad-11"/><rect x="-900" y="-900" width="1800" height="1800" id="PNK1Eblp9Z_lUXWMZoJB_pad-12"/><circle cx="0" cy="0" r="900" id="PNK1Eblp9Z_lUXWMZoJB_pad-13"/><rect x="-1150" y="-800" width="2300" height="1600" id="PNK1Eblp9Z_lUXWMZoJB_pad-14"/><rect x="-1150" y="-800" width="2300" height="1600" rx="800" ry="800" id="PNK1Eblp9Z_lUXWMZoJB_pad-15"/><circle cx="0" cy="0" r="1000" id="PNK1Eblp9Z_lUXWMZoJB_pad-16"/><circle cx="0" cy="0" r="2000" id="PNK1Eblp9Z_lUXWMZoJB_pad-17"/><rect x="-800" y="-1050" width="1600" height="2100" id="PNK1Eblp9Z_lUXWMZoJB_pad-18"/><rect x="-800" y="-1050" width="1600" height="2100" rx="800" ry="800" id="PNK1Eblp9Z_lUXWMZoJB_pad-19"/><rect x="-1200" y="-800" width="2400" height="1600" id="PNK1Eblp9Z_lUXWMZoJB_pad-20"/><rect x="-1200" y="-800" width="2400" height="1600" rx="800" ry="800" id="PNK1Eblp9Z_lUXWMZoJB_pad-21"/><rect x="-850" y="-850" width="1700" height="1700" id="PNK1Eblp9Z_lUXWMZoJB_pad-22"/><rect x="-850" y="-850" width="1700" height="1700" rx="850" ry="850" id="PNK1Eblp9Z_lUXWMZoJB_pad-23"/><circle cx="0" cy="0" r="400" id="PNK1Eblp9Z_lUXWMZoJB_pad-24"/><circle cx="0" cy="0" r="800" id="Vsc1drgT2VtmL_Eim498_pad-10"/><rect x="-800" y="-800" width="1600" height="1600" rx="800" ry="800" id="Vsc1drgT2VtmL_Eim498_pad-11"/><circle cx="0" cy="0" r="1750" id="Vsc1drgT2VtmL_Eim498_pad-12"/><rect x="-900" y="-900" width="1800" height="1800" id="Vsc1drgT2VtmL_Eim498_pad-13"/><circle cx="0" cy="0" r="900" id="Vsc1drgT2VtmL_Eim498_pad-14"/><rect x="-1150" y="-800" width="2300" height="1600" id="Vsc1drgT2VtmL_Eim498_pad-15"/><rect x="-1150" y="-800" width="2300" height="1600" rx="800" ry="800" id="Vsc1drgT2VtmL_Eim498_pad-16"/><circle cx="0" cy="0" r="1000" id="Vsc1drgT2VtmL_Eim498_pad-17"/><circle cx="0" cy="0" r="2000" id="Vsc1drgT2VtmL_Eim498_pad-18"/><rect x="-800" y="-1050" width="1600" height="2100" id="Vsc1drgT2VtmL_Eim498_pad-19"/><rect x="-800" y="-1050" width="1600" height="2100" rx="800" ry="800" id="Vsc1drgT2VtmL_Eim498_pad-20"/><rect x="-1200" y="-800" width="2400" height="1600" id="Vsc1drgT2VtmL_Eim498_pad-21"/><rect x="-1200" y="-800" width="2400" height="1600" rx="800" ry="800" id="Vsc1drgT2VtmL_Eim498_pad-22"/><rect x="-850" y="-850" width="1700" height="1700" id="Vsc1drgT2VtmL_Eim498_pad-23"/><rect x="-850" y="-850" width="1700" height="1700" rx="850" ry="850" id="Vsc1drgT2VtmL_Eim498_pad-24"/><circle cx="0" cy="0" r="68.9" id="DBezc90RDeAQRkMXUc4j_pad-1"/><circle cx="0" cy="0" r="7.85" id="uwGssnjtQSYVjznjCACS_pad-1"/><circle cx="0" cy="0" r="15.75" id="uwGssnjtQSYVjznjCACS_pad-2"/><circle cx="0" cy="0" r="17.7" id="uwGssnjtQSYVjznjCACS_pad-3"/><circle cx="0" cy="0" r="19.7" id="uwGssnjtQSYVjznjCACS_pad-4"/><circle cx="0" cy="0" r="21.65" id="uwGssnjtQSYVjznjCACS_pad-5"/><circle cx="0" cy="0" r="63" id="uwGssnjtQSYVjznjCACS_pad-6"/><g id="FWOZyPNthhQYiLoQXi_H_top_copper"><use xlink:href="#PNK1Eblp9Z_lUXWMZoJB_pad-10" x="133820" y="-100000"/><use xlink:href="#PNK1Eblp9Z_lUXWMZoJB_pad-11" x="143980" y="-100000"/><use xlink:href="#PNK1Eblp9Z_lUXWMZoJB_pad-10" x="131572" y="-111520"/><use xlink:href="#PNK1Eblp9Z_lUXWMZoJB_pad-11" x="131572" y="-121680"/><use xlink:href="#PNK1Eblp9Z_lUXWMZoJB_pad-10" x="125984" y="-91694"/><use xlink:href="#PNK1Eblp9Z_lUXWMZoJB_pad-11" x="125984" y="-81534"/><use xlink:href="#PNK1Eblp9Z_lUXWMZoJB_pad-12" x="118867" y="-69596"/><use xlink:href="#PNK1Eblp9Z_lUXWMZoJB_pad-13" x="121407" y="-69596"/><use xlink:href="#PNK1Eblp9Z_lUXWMZoJB_pad-10" x="117750" y="-127528"/><use xlink:href="#PNK1Eblp9Z_lUXWMZoJB_pad-10" x="117750" y="-130028"/><use xlink:href="#PNK1Eblp9Z_lUXWMZoJB_pad-14" x="118618" y="-88392"/><use xlink:href="#PNK1Eblp9Z_lUXWMZoJB_pad-15" x="118618" y="-90932"/><use xlink:href="#PNK1Eblp9Z_lUXWMZoJB_pad-15" x="118618" y="-93472"/><use xlink:href="#PNK1Eblp9Z_lUXWMZoJB_pad-10" x="126550" y="-101150"/><use xlink:href="#PNK1Eblp9Z_lUXWMZoJB_pad-10" x="126550" y="-98650"/><use xlink:href="#PNK1Eblp9Z_lUXWMZoJB_pad-16" x="158200" y="-78000"/><use xlink:href="#PNK1Eblp9Z_lUXWMZoJB_pad-16" x="158200" y="-71500"/><use xlink:href="#PNK1Eblp9Z_lUXWMZoJB_pad-16" x="162700" y="-78000"/><use xlink:href="#PNK1Eblp9Z_lUXWMZoJB_pad-16" x="162700" y="-71500"/><use xlink:href="#PNK1Eblp9Z_lUXWMZoJB_pad-17" x="153000" y="-132989.669"/><use xlink:href="#PNK1Eblp9Z_lUXWMZoJB_pad-17" x="128000" y="-132989.669"/><use xlink:href="#PNK1Eblp9Z_lUXWMZoJB_pad-18" x="134960" y="-131319.669"/><use xlink:href="#PNK1Eblp9Z_lUXWMZoJB_pad-19" x="137730" y="-131319.669"/><use xlink:href="#PNK1Eblp9Z_lUXWMZoJB_pad-19" x="140500" y="-131319.669"/><use xlink:href="#PNK1Eblp9Z_lUXWMZoJB_pad-19" x="143270" y="-131319.669"/><use xlink:href="#PNK1Eblp9Z_lUXWMZoJB_pad-19" x="146040" y="-131319.669"/><use xlink:href="#PNK1Eblp9Z_lUXWMZoJB_pad-19" x="136345" y="-134659.669"/><use xlink:href="#PNK1Eblp9Z_lUXWMZoJB_pad-19" x="139115" y="-134659.669"/><use xlink:href="#PNK1Eblp9Z_lUXWMZoJB_pad-19" x="141885" y="-134659.669"/><use xlink:href="#PNK1Eblp9Z_lUXWMZoJB_pad-19" x="144655" y="-134659.669"/><use xlink:href="#PNK1Eblp9Z_lUXWMZoJB_pad-20" x="124600" y="-121671"/><use xlink:href="#PNK1Eblp9Z_lUXWMZoJB_pad-21" x="124600" y="-119131"/><use xlink:href="#PNK1Eblp9Z_lUXWMZoJB_pad-21" x="124600" y="-116591"/><use xlink:href="#PNK1Eblp9Z_lUXWMZoJB_pad-21" x="124600" y="-114051"/><use xlink:href="#PNK1Eblp9Z_lUXWMZoJB_pad-21" x="124600" y="-111511"/><use xlink:href="#PNK1Eblp9Z_lUXWMZoJB_pad-21" x="124600" y="-108971"/><use xlink:href="#PNK1Eblp9Z_lUXWMZoJB_pad-21" x="124600" y="-106431"/><use xlink:href="#PNK1Eblp9Z_lUXWMZoJB_pad-21" x="116980" y="-106431"/><use xlink:href="#PNK1Eblp9Z_lUXWMZoJB_pad-21" x="116980" y="-108971"/><use xlink:href="#PNK1Eblp9Z_lUXWMZoJB_pad-21" x="116980" y="-111511"/><use xlink:href="#PNK1Eblp9Z_lUXWMZoJB_pad-21" x="116980" y="-114051"/><use xlink:href="#PNK1Eblp9Z_lUXWMZoJB_pad-21" x="116980" y="-116591"/><use xlink:href="#PNK1Eblp9Z_lUXWMZoJB_pad-21" x="116980" y="-119131"/><use xlink:href="#PNK1Eblp9Z_lUXWMZoJB_pad-21" x="116980" y="-121671"/><use xlink:href="#PNK1Eblp9Z_lUXWMZoJB_pad-20" x="132900" y="-56900"/><use xlink:href="#PNK1Eblp9Z_lUXWMZoJB_pad-21" x="132900" y="-59440"/><use xlink:href="#PNK1Eblp9Z_lUXWMZoJB_pad-21" x="132900" y="-61980"/><use xlink:href="#PNK1Eblp9Z_lUXWMZoJB_pad-21" x="132900" y="-64520"/><use xlink:href="#PNK1Eblp9Z_lUXWMZoJB_pad-21" x="132900" y="-67060"/><use xlink:href="#PNK1Eblp9Z_lUXWMZoJB_pad-21" x="132900" y="-69600"/><use xlink:href="#PNK1Eblp9Z_lUXWMZoJB_pad-21" x="132900" y="-72140"/><use xlink:href="#PNK1Eblp9Z_lUXWMZoJB_pad-21" x="132900" y="-74680"/><use xlink:href="#PNK1Eblp9Z_lUXWMZoJB_pad-21" x="132900" y="-77220"/><use xlink:href="#PNK1Eblp9Z_lUXWMZoJB_pad-21" x="132900" y="-79760"/><use xlink:href="#PNK1Eblp9Z_lUXWMZoJB_pad-21" x="132900" y="-82300"/><use xlink:href="#PNK1Eblp9Z_lUXWMZoJB_pad-21" x="132900" y="-84840"/><use xlink:href="#PNK1Eblp9Z_lUXWMZoJB_pad-21" x="148140" y="-84840"/><use xlink:href="#PNK1Eblp9Z_lUXWMZoJB_pad-21" x="148140" y="-82300"/><use xlink:href="#PNK1Eblp9Z_lUXWMZoJB_pad-21" x="148140" y="-79760"/><use xlink:href="#PNK1Eblp9Z_lUXWMZoJB_pad-21" x="148140" y="-77220"/><use xlink:href="#PNK1Eblp9Z_lUXWMZoJB_pad-21" x="148140" y="-74680"/><use xlink:href="#PNK1Eblp9Z_lUXWMZoJB_pad-21" x="148140" y="-72140"/><use xlink:href="#PNK1Eblp9Z_lUXWMZoJB_pad-21" x="148140" y="-69600"/><use xlink:href="#PNK1Eblp9Z_lUXWMZoJB_pad-21" x="148140" y="-67060"/><use xlink:href="#PNK1Eblp9Z_lUXWMZoJB_pad-21" x="148140" y="-64520"/><use xlink:href="#PNK1Eblp9Z_lUXWMZoJB_pad-21" x="148140" y="-61980"/><use xlink:href="#PNK1Eblp9Z_lUXWMZoJB_pad-21" x="148140" y="-59440"/><use xlink:href="#PNK1Eblp9Z_lUXWMZoJB_pad-21" x="148140" y="-56900"/><use xlink:href="#PNK1Eblp9Z_lUXWMZoJB_pad-22" x="160000" y="-88000"/><use xlink:href="#PNK1Eblp9Z_lUXWMZoJB_pad-23" x="162540" y="-88000"/><use xlink:href="#PNK1Eblp9Z_lUXWMZoJB_pad-23" x="160000" y="-90540"/><use xlink:href="#PNK1Eblp9Z_lUXWMZoJB_pad-23" x="162540" y="-90540"/><use xlink:href="#PNK1Eblp9Z_lUXWMZoJB_pad-23" x="160000" y="-93080"/><use xlink:href="#PNK1Eblp9Z_lUXWMZoJB_pad-23" x="162540" y="-93080"/><use xlink:href="#PNK1Eblp9Z_lUXWMZoJB_pad-23" x="160000" y="-95620"/><use xlink:href="#PNK1Eblp9Z_lUXWMZoJB_pad-23" x="162540" y="-95620"/><use xlink:href="#PNK1Eblp9Z_lUXWMZoJB_pad-24" x="141000" y="-73200"/><use xlink:href="#PNK1Eblp9Z_lUXWMZoJB_pad-24" x="140500" y="-137000"/><use xlink:href="#PNK1Eblp9Z_lUXWMZoJB_pad-24" x="133000" y="-97000"/><path d="M 136460 -67060 138300 -68900 M 137130 -125218.528 134960 -127388.528 M 132900 -67060 136460 -67060 M 138300 -68900 138300 -122298.528 M 134960 -127388.528 134960 -131569.669 M 137130 -123468.528 137130 -125218.528 M 138300 -122298.528 137130 -123468.528 M 132900 -59440 136240 -59440 M 137730 -123717.056 137730 -131569.669 M 136240 -59440 138900 -62100 138900 -122547.056 137730 -123717.056 M 139500 -122500 140500 -123500 M 136200 -56900 139500 -60200 139500 -122500 M 132900 -56900 136200 -56900 M 140500 -123500 140500 -131569.669 M 140100 -102300 143270 -105470 M 140100 -74100 140100 -102300 M 141000 -73200 140100 -74100 M 143270 -105470 143270 -131569.669 M 143980 -125180 146040 -127240 M 148140 -84840 143980 -89000 143980 -100000 M 146040 -127240 146040 -131569.669 M 143980 -100000 143980 -125180 M 136530 -124970 132600 -128900 M 137700 -122050 136530 -123220 136530 -124970 M 137700 -71450 137700 -122050 M 133909.669 -134409.669 136345 -134409.669 M 132600 -133100 133909.669 -134409.669 M 132600 -128900 132600 -133100 M 132900 -69600 135850 -69600 137700 -71450" fill="none" stroke-width="300"/><path d="M 158700 -134800 153600 -139900 M 123700 -136200 127400 -139900 M 117750 -127528 117750 -122441 116980 -121671 M 158700 -103100 158700 -134800 M 122311 -101100 126500 -101100 128270 -102870 M 139115 -139885 139100 -139900 M 148140 -64520 151520 -64520 M 116980 -106431 122311 -101100 M 153000 -97400 158700 -103100 M 139115 -134409.669 139115 -139885 M 123700 -136200 123700 -127550 M 128270 -122936 123678 -127528 M 153000 -66000 153000 -97400 M 117750 -127528 123678 -127528 M 153600 -139900 139100 -139900 M 127400 -139900 139100 -139900 M 128270 -102870 128270 -122936 M 123700 -127550 123678 -127528 M 151520 -64520 153000 -66000" fill="none" stroke-width="1000"/><path d="M 131500 -111448 131500 -86240 M 144655 -137345 144655 -134409.669 M 140500 -137000 141250 -137750 M 131500 -86240 132900 -84840 M 144250 -137750 144655 -137345 M 141250 -137750 144250 -137750 M 152230 -61980 158200 -67950 M 158200 -71500 158200 -78000 M 148140 -61980 152230 -61980 M 158200 -67950 158200 -71500" fill="none" stroke-width="300"/><path d="M 121407 -76957 121407 -69596 M 125984 -81534 121407 -76957" fill="none" stroke-width="500"/><path d="M 118618 -90932 121866.25 -90932 M 129286 -83512.25 129286 -80518 M 130044 -79760 132900 -79760 M 121866.25 -90932 129286 -83512.25 M 129286 -80518 130044 -79760 M 133000 -97000 137100 -92900 M 120904 -109982 121915 -108971 M 120909 -111511 120904 -111506 120904 -109982 M 137100 -76500 135280 -74680 M 121915 -108971 124600 -108971 M 124600 -111511 120909 -111511 M 119369 -119131 120904 -117596 M 137100 -92900 137100 -76500 M 120904 -117596 120904 -111506 M 135280 -74680 132900 -74680 M 116980 -119131 119369 -119131" fill="none" stroke-width="300"/><path d="M 114046 -103505 117729 -99822 M 123190 -94488 126050 -91628 M 114046 -107696 114046 -103505 M 117729 -99822 121158 -99822 M 123190 -97790 123190 -94488 M 115321 -108971 114046 -107696 M 116980 -108971 115321 -108971 M 121158 -99822 123190 -97790" fill="none" stroke-width="500"/></g><g id="FWOZyPNthhQYiLoQXi_H_top_soldermask"><use xlink:href="#Vsc1drgT2VtmL_Eim498_pad-10" x="133820" y="-100000"/><use xlink:href="#Vsc1drgT2VtmL_Eim498_pad-11" x="143980" y="-100000"/><use xlink:href="#Vsc1drgT2VtmL_Eim498_pad-10" x="131572" y="-111520"/><use xlink:href="#Vsc1drgT2VtmL_Eim498_pad-11" x="131572" y="-121680"/><use xlink:href="#Vsc1drgT2VtmL_Eim498_pad-10" x="125984" y="-91694"/><use xlink:href="#Vsc1drgT2VtmL_Eim498_pad-11" x="125984" y="-81534"/><use xlink:href="#Vsc1drgT2VtmL_Eim498_pad-12" x="163000" y="-140000"/><use xlink:href="#Vsc1drgT2VtmL_Eim498_pad-13" x="118867" y="-69596"/><use xlink:href="#Vsc1drgT2VtmL_Eim498_pad-14" x="121407" y="-69596"/><use xlink:href="#Vsc1drgT2VtmL_Eim498_pad-12" x="163000" y="-60000"/><use xlink:href="#Vsc1drgT2VtmL_Eim498_pad-10" x="117750" y="-127528"/><use xlink:href="#Vsc1drgT2VtmL_Eim498_pad-10" x="117750" y="-130028"/><use xlink:href="#Vsc1drgT2VtmL_Eim498_pad-15" x="118618" y="-88392"/><use xlink:href="#Vsc1drgT2VtmL_Eim498_pad-16" x="118618" y="-90932"/><use xlink:href="#Vsc1drgT2VtmL_Eim498_pad-16" x="118618" y="-93472"/><use xlink:href="#Vsc1drgT2VtmL_Eim498_pad-10" x="126550" y="-101150"/><use xlink:href="#Vsc1drgT2VtmL_Eim498_pad-10" x="126550" y="-98650"/><use xlink:href="#Vsc1drgT2VtmL_Eim498_pad-17" x="158200" y="-78000"/><use xlink:href="#Vsc1drgT2VtmL_Eim498_pad-17" x="158200" y="-71500"/><use xlink:href="#Vsc1drgT2VtmL_Eim498_pad-17" x="162700" y="-78000"/><use xlink:href="#Vsc1drgT2VtmL_Eim498_pad-17" x="162700" y="-71500"/><use xlink:href="#Vsc1drgT2VtmL_Eim498_pad-18" x="153000" y="-132989.669"/><use xlink:href="#Vsc1drgT2VtmL_Eim498_pad-18" x="128000" y="-132989.669"/><use xlink:href="#Vsc1drgT2VtmL_Eim498_pad-19" x="134960" y="-131319.669"/><use xlink:href="#Vsc1drgT2VtmL_Eim498_pad-20" x="137730" y="-131319.669"/><use xlink:href="#Vsc1drgT2VtmL_Eim498_pad-20" x="140500" y="-131319.669"/><use xlink:href="#Vsc1drgT2VtmL_Eim498_pad-20" x="143270" y="-131319.669"/><use xlink:href="#Vsc1drgT2VtmL_Eim498_pad-20" x="146040" y="-131319.669"/><use xlink:href="#Vsc1drgT2VtmL_Eim498_pad-20" x="136345" y="-134659.669"/><use xlink:href="#Vsc1drgT2VtmL_Eim498_pad-20" x="139115" y="-134659.669"/><use xlink:href="#Vsc1drgT2VtmL_Eim498_pad-20" x="141885" y="-134659.669"/><use xlink:href="#Vsc1drgT2VtmL_Eim498_pad-20" x="144655" y="-134659.669"/><use xlink:href="#Vsc1drgT2VtmL_Eim498_pad-21" x="124600" y="-121671"/><use xlink:href="#Vsc1drgT2VtmL_Eim498_pad-22" x="124600" y="-119131"/><use xlink:href="#Vsc1drgT2VtmL_Eim498_pad-22" x="124600" y="-116591"/><use xlink:href="#Vsc1drgT2VtmL_Eim498_pad-22" x="124600" y="-114051"/><use xlink:href="#Vsc1drgT2VtmL_Eim498_pad-22" x="124600" y="-111511"/><use xlink:href="#Vsc1drgT2VtmL_Eim498_pad-22" x="124600" y="-108971"/><use xlink:href="#Vsc1drgT2VtmL_Eim498_pad-22" x="124600" y="-106431"/><use xlink:href="#Vsc1drgT2VtmL_Eim498_pad-22" x="116980" y="-106431"/><use xlink:href="#Vsc1drgT2VtmL_Eim498_pad-22" x="116980" y="-108971"/><use xlink:href="#Vsc1drgT2VtmL_Eim498_pad-22" x="116980" y="-111511"/><use xlink:href="#Vsc1drgT2VtmL_Eim498_pad-22" x="116980" y="-114051"/><use xlink:href="#Vsc1drgT2VtmL_Eim498_pad-22" x="116980" y="-116591"/><use xlink:href="#Vsc1drgT2VtmL_Eim498_pad-22" x="116980" y="-119131"/><use xlink:href="#Vsc1drgT2VtmL_Eim498_pad-22" x="116980" y="-121671"/><use xlink:href="#Vsc1drgT2VtmL_Eim498_pad-12" x="118000" y="-60000"/><use xlink:href="#Vsc1drgT2VtmL_Eim498_pad-21" x="132900" y="-56900"/><use xlink:href="#Vsc1drgT2VtmL_Eim498_pad-22" x="132900" y="-59440"/><use xlink:href="#Vsc1drgT2VtmL_Eim498_pad-22" x="132900" y="-61980"/><use xlink:href="#Vsc1drgT2VtmL_Eim498_pad-22" x="132900" y="-64520"/><use xlink:href="#Vsc1drgT2VtmL_Eim498_pad-22" x="132900" y="-67060"/><use xlink:href="#Vsc1drgT2VtmL_Eim498_pad-22" x="132900" y="-69600"/><use xlink:href="#Vsc1drgT2VtmL_Eim498_pad-22" x="132900" y="-72140"/><use xlink:href="#Vsc1drgT2VtmL_Eim498_pad-22" x="132900" y="-74680"/><use xlink:href="#Vsc1drgT2VtmL_Eim498_pad-22" x="132900" y="-77220"/><use xlink:href="#Vsc1drgT2VtmL_Eim498_pad-22" x="132900" y="-79760"/><use xlink:href="#Vsc1drgT2VtmL_Eim498_pad-22" x="132900" y="-82300"/><use xlink:href="#Vsc1drgT2VtmL_Eim498_pad-22" x="132900" y="-84840"/><use xlink:href="#Vsc1drgT2VtmL_Eim498_pad-22" x="148140" y="-84840"/><use xlink:href="#Vsc1drgT2VtmL_Eim498_pad-22" x="148140" y="-82300"/><use xlink:href="#Vsc1drgT2VtmL_Eim498_pad-22" x="148140" y="-79760"/><use xlink:href="#Vsc1drgT2VtmL_Eim498_pad-22" x="148140" y="-77220"/><use xlink:href="#Vsc1drgT2VtmL_Eim498_pad-22" x="148140" y="-74680"/><use xlink:href="#Vsc1drgT2VtmL_Eim498_pad-22" x="148140" y="-72140"/><use xlink:href="#Vsc1drgT2VtmL_Eim498_pad-22" x="148140" y="-69600"/><use xlink:href="#Vsc1drgT2VtmL_Eim498_pad-22" x="148140" y="-67060"/><use xlink:href="#Vsc1drgT2VtmL_Eim498_pad-22" x="148140" y="-64520"/><use xlink:href="#Vsc1drgT2VtmL_Eim498_pad-22" x="148140" y="-61980"/><use xlink:href="#Vsc1drgT2VtmL_Eim498_pad-22" x="148140" y="-59440"/><use xlink:href="#Vsc1drgT2VtmL_Eim498_pad-22" x="148140" y="-56900"/><use xlink:href="#Vsc1drgT2VtmL_Eim498_pad-12" x="118000" y="-140000"/><use xlink:href="#Vsc1drgT2VtmL_Eim498_pad-23" x="160000" y="-88000"/><use xlink:href="#Vsc1drgT2VtmL_Eim498_pad-24" x="162540" y="-88000"/><use xlink:href="#Vsc1drgT2VtmL_Eim498_pad-24" x="160000" y="-90540"/><use xlink:href="#Vsc1drgT2VtmL_Eim498_pad-24" x="162540" y="-90540"/><use xlink:href="#Vsc1drgT2VtmL_Eim498_pad-24" x="160000" y="-93080"/><use xlink:href="#Vsc1drgT2VtmL_Eim498_pad-24" x="162540" y="-93080"/><use xlink:href="#Vsc1drgT2VtmL_Eim498_pad-24" x="160000" y="-95620"/><use xlink:href="#Vsc1drgT2VtmL_Eim498_pad-24" x="162540" y="-95620"/></g><g id="FWOZyPNthhQYiLoQXi_H_top_silkscreen"><path d="M 167388.095 -81297.619 166521.428 -81297.619 M 166769.047 -81297.619 166645.238 -81235.714 166583.333 -81173.809 166521.428 -81050 166521.428 -80926.19 M 167326.19 -79997.619 167388.095 -80121.428 167388.095 -80369.047 167326.19 -80492.857 167202.38 -80554.761 166707.142 -80554.761 166583.333 -80492.857 166521.428 -80369.047 166521.428 -80121.428 166583.333 -79997.619 166707.142 -79935.714 166830.952 -79935.714 166954.761 -80554.761 M 166521.428 -79502.38 167388.095 -79192.857 166521.428 -78883.333 M 167264.285 -78388.095 167326.19 -78326.19 167388.095 -78388.095 167326.19 -78450 167264.285 -78388.095 167388.095 -78388.095 M 166211.904 -76840.476 166150 -76778.571 166088.095 -76654.761 166088.095 -76345.238 166150 -76221.428 166211.904 -76159.523 166335.714 -76097.619 166459.523 -76097.619 166645.238 -76159.523 167388.095 -76902.38 167388.095 -76097.619 M 167264.285 -75540.476 167326.19 -75478.571 167388.095 -75540.476 167326.19 -75602.38 167264.285 -75540.476 167388.095 -75540.476 M 166521.428 -74364.285 167388.095 -74364.285 M 166026.19 -74673.809 166954.761 -74983.333 166954.761 -74178.571" fill="none" stroke-width="300"/><path d="M 163857.142 -130891.16 166428.571 -131212.589 166714.285 -131391.16 166857.142 -131694.732 166857.142 -131837.589 M 162857.142 -130766.16 163000 -130926.875 163142.857 -130801.875 163000 -130641.16 162857.142 -130766.16 163142.857 -130801.875 M 165857.142 -129284.017 165714.285 -129551.875 165571.428 -129676.875 165285.714 -129784.017 164428.571 -129676.875 164142.857 -129498.303 164000 -129337.589 163857.142 -129034.017 163857.142 -128605.446 164000 -128337.589 164142.857 -128212.589 164428.571 -128105.446 165285.714 -128212.589 165571.428 -128391.16 165714.285 -128551.875 165857.142 -128855.446 165857.142 -129284.017 M 163857.142 -127034.017 165857.142 -126569.732 M 163857.142 -125605.446 165857.142 -126569.732 166571.428 -126944.732 166714.285 -127105.446 166857.142 -127409.017 M 163142.857 -124516.16 163000 -124355.446 162857.142 -124051.875 162857.142 -123337.589 163000 -123069.732 163142.857 -122944.732 163428.571 -122837.589 163714.285 -122873.303 164142.857 -123069.732 165857.142 -124998.303 165857.142 -123141.16 M 163857.142 -120319.732 165857.142 -120569.732 M 163857.142 -121605.446 165428.571 -121801.875 165714.285 -121694.732 165857.142 -121426.875 165857.142 -120998.303 165714.285 -120694.732 165571.428 -120534.017 M 165714.285 -119266.16 165857.142 -118998.303 165857.142 -118426.875 165714.285 -118123.303 165428.571 -117944.732 165285.714 -117926.875 165000 -118034.017 164857.142 -118301.875 164857.142 -118730.446 164714.285 -118998.303 164428.571 -119105.446 164285.714 -119087.589 164000 -118909.017 163857.142 -118605.446 163857.142 -118176.875 164000 -117909.017 M 165857.142 -116712.589 162857.142 -116337.589 M 164000 -116480.446 163857.142 -116176.875 163857.142 -115605.446 164000 -115337.589 164142.857 -115212.589 164428.571 -115105.446 165285.714 -115212.589 165571.428 -115391.16 165714.285 -115551.875 165857.142 -115855.446 165857.142 -116426.875 165714.285 -116694.732" fill="none" stroke-width="500"/><path d="M 138733.333 -100452.38 138400 -99976.19 M 138161.904 -100452.38 138161.904 -99452.38 138542.857 -99452.38 138638.095 -99500 138685.714 -99547.619 138733.333 -99642.857 138733.333 -99785.714 138685.714 -99880.952 138638.095 -99928.571 138542.857 -99976.19 138161.904 -99976.19 M 139066.666 -99452.38 139685.714 -99452.38 139352.38 -99833.333 139495.238 -99833.333 139590.476 -99880.952 139638.095 -99928.571 139685.714 -100023.809 139685.714 -100261.904 139638.095 -100357.142 139590.476 -100404.761 139495.238 -100452.38 139209.523 -100452.38 139114.285 -100404.761 139066.666 -100357.142 M 132024.38 -116766.666 131548.19 -117100 M 132024.38 -117338.095 131024.38 -117338.095 131024.38 -116957.142 131072 -116861.904 131119.619 -116814.285 131214.857 -116766.666 131357.714 -116766.666 131452.952 -116814.285 131500.571 -116861.904 131548.19 -116957.142 131548.19 -117338.095 M 131119.619 -116385.714 131072 -116338.095 131024.38 -116242.857 131024.38 -116004.761 131072 -115909.523 131119.619 -115861.904 131214.857 -115814.285 131310.095 -115814.285 131452.952 -115861.904 132024.38 -116433.333 132024.38 -115814.285 M 126436.38 -86780.666 125960.19 -87114 M 126436.38 -87352.095 125436.38 -87352.095 125436.38 -86971.142 125484 -86875.904 125531.619 -86828.285 125626.857 -86780.666 125769.714 -86780.666 125864.952 -86828.285 125912.571 -86875.904 125960.19 -86971.142 125960.19 -87352.095 M 126436.38 -85828.285 126436.38 -86399.714 M 126436.38 -86114 125436.38 -86114 125579.238 -86209.238 125674.476 -86304.476 125722.095 -86399.714 M 119398.904 -66588.38 119398.904 -65588.38 119637 -65588.38 119779.857 -65636 119875.095 -65731.238 119922.714 -65826.476 119970.333 -66016.952 119970.333 -66159.809 119922.714 -66350.285 119875.095 -66445.523 119779.857 -66540.761 119637 -66588.38 119398.904 -66588.38 M 120922.714 -66588.38 120351.285 -66588.38 M 120637 -66588.38 120637 -65588.38 120541.761 -65731.238 120446.523 -65826.476 120351.285 -65874.095" fill="none" stroke-width="150"/><path d="M 114939.566 -75260.285 114844.328 -75355.523 114558.614 -75450.761 114368.138 -75450.761 114082.423 -75355.523 113891.947 -75165.047 113796.709 -74974.571 113701.471 -74593.619 113701.471 -74307.904 113796.709 -73926.952 113891.947 -73736.476 114082.423 -73546 114368.138 -73450.761 114558.614 -73450.761 114844.328 -73546 114939.566 -73641.238 M 116653.852 -73450.761 116272.899 -73450.761 116082.423 -73546 115987.185 -73641.238 115796.709 -73926.952 115701.471 -74307.904 115701.471 -75069.809 115796.709 -75260.285 115891.947 -75355.523 116082.423 -75450.761 116463.376 -75450.761 116653.852 -75355.523 116749.09 -75260.285 116844.328 -75069.809 116844.328 -74593.619 116749.09 -74403.142 116653.852 -74307.904 116463.376 -74212.666 116082.423 -74212.666 115891.947 -74307.904 115796.709 -74403.142 115701.471 -74593.619 M 118558.614 -74117.428 118558.614 -75450.761 M 118082.423 -73355.523 117606.233 -74784.095 118844.328 -74784.095 M 119606.233 -75450.761 119606.233 -73450.761 120272.899 -74879.333 120939.566 -73450.761 120939.566 -75450.761 M 122272.899 -73450.761 122653.852 -73450.761 122844.328 -73546 123034.804 -73736.476 123130.042 -74117.428 123130.042 -74784.095 123034.804 -75165.047 122844.328 -75355.523 122653.852 -75450.761 122272.899 -75450.761 122082.423 -75355.523 121891.947 -75165.047 121796.709 -74784.095 121796.709 -74117.428 121891.947 -73736.476 122082.423 -73546 122272.899 -73450.761 M 123987.185 -75450.761 123987.185 -73450.761 124463.376 -73450.761 124749.09 -73546 124939.566 -73736.476 125034.804 -73926.952 125130.042 -74307.904 125130.042 -74593.619 125034.804 -74974.571 124939.566 -75165.047 124749.09 -75355.523 124463.376 -75450.761 123987.185 -75450.761 M 125987.185 -74403.142 126653.852 -74403.142 M 126939.566 -75450.761 125987.185 -75450.761 125987.185 -73450.761 126939.566 -73450.761" fill="none" stroke-width="300"/><path d="M 120657.142 -128944.666 120704.761 -128992.285 120752.38 -129135.142 120752.38 -129230.38 120704.761 -129373.238 120609.523 -129468.476 120514.285 -129516.095 120323.809 -129563.714 120180.952 -129563.714 119990.476 -129516.095 119895.238 -129468.476 119800 -129373.238 119752.38 -129230.38 119752.38 -129135.142 119800 -128992.285 119847.619 -128944.666 M 120752.38 -127992.285 120752.38 -128563.714 M 120752.38 -128278 119752.38 -128278 119895.238 -128373.238 119990.476 -128468.476 120038.095 -128563.714 M 114654.761 -92265.333 114702.38 -92122.476 114702.38 -91884.38 114654.761 -91789.142 114607.142 -91741.523 114511.904 -91693.904 114416.666 -91693.904 114321.428 -91741.523 114273.809 -91789.142 114226.19 -91884.38 114178.571 -92074.857 114130.952 -92170.095 114083.333 -92217.714 113988.095 -92265.333 113892.857 -92265.333 113797.619 -92217.714 113750 -92170.095 113702.38 -92074.857 113702.38 -91836.761 113750 -91693.904 M 113702.38 -91360.571 114702.38 -91122.476 113988.095 -90932 114702.38 -90741.523 113702.38 -90503.428 M 113797.619 -90170.095 113750 -90122.476 113702.38 -90027.238 113702.38 -89789.142 113750 -89693.904 113797.619 -89646.285 113892.857 -89598.666 113988.095 -89598.666 114130.952 -89646.285 114702.38 -90217.714 114702.38 -89598.666" fill="none" stroke-width="150"/><path d="M 115060.857 -99800 115918 -99800 M 114889.428 -100314.285 115489.428 -98514.285 116089.428 -100314.285 M 116689.428 -100314.285 116689.428 -98514.285 117289.428 -99800 117889.428 -98514.285 117889.428 -100314.285 M 118746.571 -100314.285 118746.571 -98514.285 M 120546.571 -98600 120375.142 -98514.285 120118 -98514.285 119860.857 -98600 119689.428 -98771.428 119603.714 -98942.857 119518 -99285.714 119518 -99542.857 119603.714 -99885.714 119689.428 -100057.142 119860.857 -100228.571 120118 -100314.285 120289.428 -100314.285 120546.571 -100228.571 120632.285 -100142.857 120632.285 -99542.857 120289.428 -99542.857 M 121318 -99800 122175.142 -99800 M 121146.571 -100314.285 121746.571 -98514.285 122346.571 -100314.285 M 117460.857 -83392.857 117375.142 -83478.571 117118 -83564.285 116946.571 -83564.285 116689.428 -83478.571 116518 -83307.142 116432.285 -83135.714 116346.571 -82792.857 116346.571 -82535.714 116432.285 -82192.857 116518 -82021.428 116689.428 -81850 116946.571 -81764.285 117118 -81764.285 117375.142 -81850 117460.857 -81935.714 M 119003.714 -81764.285 118660.857 -81764.285 118489.428 -81850 118403.714 -81935.714 118232.285 -82192.857 118146.571 -82535.714 118146.571 -83221.428 118232.285 -83392.857 118318 -83478.571 118489.428 -83564.285 118832.285 -83564.285 119003.714 -83478.571 119089.428 -83392.857 119175.142 -83221.428 119175.142 -82792.857 119089.428 -82621.428 119003.714 -82535.714 118832.285 -82450 118489.428 -82450 118318 -82535.714 118232.285 -82621.428 118146.571 -82792.857 M 120718 -82364.285 120718 -83564.285 M 120289.428 -81678.571 119860.857 -82964.285 120975.142 -82964.285" fill="none" stroke-width="300"/><path d="M 129307.142 -100016.666 129354.761 -100064.285 129402.38 -100207.142 129402.38 -100302.38 129354.761 -100445.238 129259.523 -100540.476 129164.285 -100588.095 128973.809 -100635.714 128830.952 -100635.714 128640.476 -100588.095 128545.238 -100540.476 128450 -100445.238 128402.38 -100302.38 128402.38 -100207.142 128450 -100064.285 128497.619 -100016.666 M 128497.619 -99635.714 128450 -99588.095 128402.38 -99492.857 128402.38 -99254.761 128450 -99159.523 128497.619 -99111.904 128592.857 -99064.285 128688.095 -99064.285 128830.952 -99111.904 129402.38 -99683.333 129402.38 -99064.285 M 160854.761 -76083.333 160902.38 -75940.476 160902.38 -75702.38 160854.761 -75607.142 160807.142 -75559.523 160711.904 -75511.904 160616.666 -75511.904 160521.428 -75559.523 160473.809 -75607.142 160426.19 -75702.38 160378.571 -75892.857 160330.952 -75988.095 160283.333 -76035.714 160188.095 -76083.333 160092.857 -76083.333 159997.619 -76035.714 159950 -75988.095 159902.38 -75892.857 159902.38 -75654.761 159950 -75511.904 M 159902.38 -75178.571 160902.38 -74940.476 160188.095 -74750 160902.38 -74559.523 159902.38 -74321.428 M 160902.38 -73416.666 160902.38 -73988.095 M 160902.38 -73702.38 159902.38 -73702.38 160045.238 -73797.619 160140.476 -73892.857 160188.095 -73988.095 M 159902.38 -81202.38 159569.047 -80726.19 M 159330.952 -81202.38 159330.952 -80202.38 159711.904 -80202.38 159807.142 -80250 159854.761 -80297.619 159902.38 -80392.857 159902.38 -80535.714 159854.761 -80630.952 159807.142 -80678.571 159711.904 -80726.19 159330.952 -80726.19 M 160283.333 -81154.761 160426.19 -81202.38 160664.285 -81202.38 160759.523 -81154.761 160807.142 -81107.142 160854.761 -81011.904 160854.761 -80916.666 160807.142 -80821.428 160759.523 -80773.809 160664.285 -80726.19 160473.809 -80678.571 160378.571 -80630.952 160330.952 -80583.333 160283.333 -80488.095 160283.333 -80392.857 160330.952 -80297.619 160378.571 -80250 160473.809 -80202.38 160711.904 -80202.38 160854.761 -80250 M 161140.476 -80202.38 161711.904 -80202.38 M 161426.19 -81202.38 161426.19 -80202.38 M 140166.666 -128222.049 140166.666 -128936.335 140119.047 -129079.192 140023.809 -129174.43 139880.952 -129222.049 139785.714 -129222.049 M 141166.666 -129222.049 140595.238 -129222.049 M 140880.952 -129222.049 140880.952 -128222.049 140785.714 -128364.907 140690.476 -128460.145 140595.238 -128507.764 M 120028.095 -123453.38 120028.095 -124262.904 120075.714 -124358.142 120123.333 -124405.761 120218.571 -124453.38 120409.047 -124453.38 120504.285 -124405.761 120551.904 -124358.142 120599.523 -124262.904 120599.523 -123453.38 M 121028.095 -123548.619 121075.714 -123501 121170.952 -123453.38 121409.047 -123453.38 121504.285 -123501 121551.904 -123548.619 121599.523 -123643.857 121599.523 -123739.095 121551.904 -123881.952 120980.476 -124453.38 121599.523 -124453.38 M 139758.095 -56852.38 139758.095 -57661.904 139805.714 -57757.142 139853.333 -57804.761 139948.571 -57852.38 140139.047 -57852.38 140234.285 -57804.761 140281.904 -57757.142 140329.523 -57661.904 140329.523 -56852.38 M 141329.523 -57852.38 140758.095 -57852.38 M 141043.809 -57852.38 141043.809 -56852.38 140948.571 -56995.238 140853.333 -57090.476 140758.095 -57138.095 M 160936.666 -84678.38 160936.666 -85392.666 160889.047 -85535.523 160793.809 -85630.761 160650.952 -85678.38 160555.714 -85678.38 M 161365.238 -84773.619 161412.857 -84726 161508.095 -84678.38 161746.19 -84678.38 161841.428 -84726 161889.047 -84773.619 161936.666 -84868.857 161936.666 -84964.095 161889.047 -85106.952 161317.619 -85678.38 161936.666 -85678.38 M 155329.333 -90992.38 155329.333 -89992.38 155710.285 -89992.38 155805.523 -90040 155853.142 -90087.619 155900.761 -90182.857 155900.761 -90325.714 155853.142 -90420.952 155805.523 -90468.571 155710.285 -90516.19 155329.333 -90516.19 M 156662.666 -90468.571 156329.333 -90468.571 M 156329.333 -90992.38 156329.333 -89992.38 156805.523 -89992.38 M 157662.666 -89992.38 157186.476 -89992.38 157138.857 -90468.571 157186.476 -90420.952 157281.714 -90373.333 157519.809 -90373.333 157615.047 -90420.952 157662.666 -90468.571 157710.285 -90563.809 157710.285 -90801.904 157662.666 -90897.142 157615.047 -90944.761 157519.809 -90992.38 157281.714 -90992.38 157186.476 -90944.761 157138.857 -90897.142 M 155329.333 -88452.38 155329.333 -87452.38 155710.285 -87452.38 155805.523 -87500 155853.142 -87547.619 155900.761 -87642.857 155900.761 -87785.714 155853.142 -87880.952 155805.523 -87928.571 155710.285 -87976.19 155329.333 -87976.19 M 156662.666 -87928.571 156329.333 -87928.571 M 156329.333 -88452.38 156329.333 -87452.38 156805.523 -87452.38 M 157615.047 -87785.714 157615.047 -88452.38 M 157376.952 -87404.761 157138.857 -88119.047 157757.904 -88119.047 M 165386.095 -87500 165290.857 -87452.38 165148 -87452.38 165005.142 -87500 164909.904 -87595.238 164862.285 -87690.476 164814.666 -87880.952 164814.666 -88023.809 164862.285 -88214.285 164909.904 -88309.523 165005.142 -88404.761 165148 -88452.38 165243.238 -88452.38 165386.095 -88404.761 165433.714 -88357.142 165433.714 -88023.809 165243.238 -88023.809 M 165862.285 -88452.38 165862.285 -87452.38 166433.714 -88452.38 166433.714 -87452.38 M 166909.904 -88452.38 166909.904 -87452.38 167148 -87452.38 167290.857 -87500 167386.095 -87595.238 167433.714 -87690.476 167481.333 -87880.952 167481.333 -88023.809 167433.714 -88214.285 167386.095 -88309.523 167290.857 -88404.761 167148 -88452.38 166909.904 -88452.38 M 155329.333 -93532.38 155329.333 -92532.38 155710.285 -92532.38 155805.523 -92580 155853.142 -92627.619 155900.761 -92722.857 155900.761 -92865.714 155853.142 -92960.952 155805.523 -93008.571 155710.285 -93056.19 155329.333 -93056.19 M 156662.666 -93008.571 156329.333 -93008.571 M 156329.333 -93532.38 156329.333 -92532.38 156805.523 -92532.38 M 157615.047 -92532.38 157424.571 -92532.38 157329.333 -92580 157281.714 -92627.619 157186.476 -92770.476 157138.857 -92960.952 157138.857 -93341.904 157186.476 -93437.142 157234.095 -93484.761 157329.333 -93532.38 157519.809 -93532.38 157615.047 -93484.761 157662.666 -93437.142 157710.285 -93341.904 157710.285 -93103.809 157662.666 -93008.571 157615.047 -92960.952 157519.809 -92913.333 157329.333 -92913.333 157234.095 -92960.952 157186.476 -93008.571 157138.857 -93103.809 M 165386.095 -92580 165290.857 -92532.38 165148 -92532.38 165005.142 -92580 164909.904 -92675.238 164862.285 -92770.476 164814.666 -92960.952 164814.666 -93103.809 164862.285 -93294.285 164909.904 -93389.523 165005.142 -93484.761 165148 -93532.38 165243.238 -93532.38 165386.095 -93484.761 165433.714 -93437.142 165433.714 -93103.809 165243.238 -93103.809 M 165862.285 -93532.38 165862.285 -92532.38 166433.714 -93532.38 166433.714 -92532.38 M 166909.904 -93532.38 166909.904 -92532.38 167148 -92532.38 167290.857 -92580 167386.095 -92675.238 167433.714 -92770.476 167481.333 -92960.952 167481.333 -93103.809 167433.714 -93294.285 167386.095 -93389.523 167290.857 -93484.761 167148 -93532.38 166909.904 -93532.38 M 165386.095 -95120 165290.857 -95072.38 165148 -95072.38 165005.142 -95120 164909.904 -95215.238 164862.285 -95310.476 164814.666 -95500.952 164814.666 -95643.809 164862.285 -95834.285 164909.904 -95929.523 165005.142 -96024.761 165148 -96072.38 165243.238 -96072.38 165386.095 -96024.761 165433.714 -95977.142 165433.714 -95643.809 165243.238 -95643.809 M 165862.285 -96072.38 165862.285 -95072.38 166433.714 -96072.38 166433.714 -95072.38 M 166909.904 -96072.38 166909.904 -95072.38 167148 -95072.38 167290.857 -95120 167386.095 -95215.238 167433.714 -95310.476 167481.333 -95500.952 167481.333 -95643.809 167433.714 -95834.285 167386.095 -95929.523 167290.857 -96024.761 167148 -96072.38 166909.904 -96072.38 M 155329.333 -96072.38 155329.333 -95072.38 155710.285 -95072.38 155805.523 -95120 155853.142 -95167.619 155900.761 -95262.857 155900.761 -95405.714 155853.142 -95500.952 155805.523 -95548.571 155710.285 -95596.19 155329.333 -95596.19 M 156662.666 -95548.571 156329.333 -95548.571 M 156329.333 -96072.38 156329.333 -95072.38 156805.523 -95072.38 M 157091.238 -95072.38 157757.904 -95072.38 157329.333 -96072.38 M 165386.095 -90040 165290.857 -89992.38 165148 -89992.38 165005.142 -90040 164909.904 -90135.238 164862.285 -90230.476 164814.666 -90420.952 164814.666 -90563.809 164862.285 -90754.285 164909.904 -90849.523 165005.142 -90944.761 165148 -90992.38 165243.238 -90992.38 165386.095 -90944.761 165433.714 -90897.142 165433.714 -90563.809 165243.238 -90563.809 M 165862.285 -90992.38 165862.285 -89992.38 166433.714 -90992.38 166433.714 -89992.38 M 166909.904 -90992.38 166909.904 -89992.38 167148 -89992.38 167290.857 -90040 167386.095 -90135.238 167433.714 -90230.476 167481.333 -90420.952 167481.333 -90563.809 167433.714 -90754.285 167386.095 -90849.523 167290.857 -90944.761 167148 -90992.38 166909.904 -90992.38" fill="none" stroke-width="150"/><path d="M 142940 -100000 142170 -100000 M 142170 -101370 142170 -98630 M 134860 -100000 135630 -100000 M 135630 -98630 135630 -101370 142170 -101370 M 142170 -98630 135630 -98630 M 131572 -112560 131572 -113330 M 132942 -113330 130202 -113330 M 131572 -120640 131572 -119870 M 130202 -113330 130202 -119870 132942 -119870 132942 -113330 M 127354 -89884 127354 -83344 M 124614 -83344 124614 -89884 127354 -89884 M 125984 -90654 125984 -89884 M 125984 -82574 125984 -83344 M 127354 -83344 124614 -83344 M 118077 -68197 118077 -68516 M 118077 -70676 118077 -70995 M 118453.67 -70676 A 1999.9999722 1999.9999722 0 0 1 121819.713 -70676.961 M 118077 -70994.749 A 2489.999752 2489.999752 0 0 1 122380.242 -70676.724 M 121819.713 -68515.039 A 1999.999931 1999.999931 0 0 1 118453.67 -68516 M 122380.242 -68515.276 A 2489.9998062 2489.9998062 0 0 1 118077 -68197.251 M 116955 -130798 116330 -130798 M 116330 -126758 116330 -130798 M 119170 -130798 118545 -130798 M 116955 -126758 116330 -126758 M 119170 -126758 118545 -126758 M 119170 -126758 119170 -130798 M 115318 -84172 116318 -84172 M 115318 -85172 115318 -84172 M 115618 -84432 121618 -84432 121618 -97432 115618 -97432 115618 -84432 M 127970 -101920 127970 -97880 M 125130 -97880 125755 -97880 M 125130 -101920 125755 -101920 M 127345 -97880 127970 -97880 M 127345 -101920 127970 -101920 M 125130 -101920 125130 -97880 M 159700 -78250 161200 -78250 M 161200 -71250 159700 -71250 M 163700 -77000 163700 -72500 M 157200 -72500 157200 -77000" fill="none" stroke-width="120"/><path d="M 151219.727 -90116.312 152294.549 -90677.887 153149.2 -91707.05 153394.532 -92143.692 153753.903 -93409.565 153622.205 -94727.69 153042.975 -95950.333 152059.749 -96929.76 151965.547 -96992.79 150948.638 -97651.685 150945.106 -102529.545 150941.573 -107407.404 152049.29 -107739.284 152854.797 -108060.276 153447.06 -108434.799 153524.116 -108513.503 153715.93 -108899.333 153520.598 -109307.668 153264.961 -109582.415 152873.536 -109896.266 152368.905 -110093.835 151608.361 -110206.886 150449.198 -110267.18 150149.124 -110275.915 148946.071 -110278.779 147908.842 -110228.141 147209.891 -110134.231 147078.856 -110093.795 146230.996 -109571.634 145935.891 -109006.404 146183.318 -108449.121 146963.052 -107950.801 147550.709 -107739.284 148658.427 -107407.404 148654.894 -102529.545 148651.361 -97651.685 147634.452 -96992.79 146620.978 -96039.037 146008.039 -94830.323 145839.172 -93514.382 146157.912 -92238.951 146205.468 -92143.692 147016.32 -90950.206 148007.763 -90248.507 149304.528 -89962.338 149800 -89946.067 151219.727 -90116.312"/><path d="M 154707.008 -102488.345 157515.519 -103679.932 159916.506 -104717.273 161885.95 -105589.524 163399.832 -106285.842 164434.133 -106795.385 164964.835 -107107.309 164996.025 -107133.177 165249.192 -107473.776 165402.818 -108018.084 165478.165 -108891.571 165496.629 -110087.183 165476.852 -111275.102 165424.121 -112279.009 165348.333 -112935.558 165316.665 -113057.126 165028.558 -113289.54 164305.426 -113729.377 163226.404 -114336.197 161870.627 -115069.561 160317.231 -115889.029 158645.351 -116754.163 156934.124 -117624.523 155262.683 -118459.669 153710.166 -119219.163 152355.708 -119862.564 151278.443 -120349.434 150557.508 -120639.333 150370.786 -120694.674 149518.197 -120732.113 148943.82 -120634.845 148336.7 -120399.65 147353.856 -119956.218 146074.568 -119345.527 144578.117 -118608.557 142943.786 -117786.287 141250.855 -116919.697 139578.607 -116049.765 138006.321 -115217.471 136613.281 -114463.794 135478.766 -113829.713 134682.059 -113356.208 134302.441 -113084.257 134283.314 -113057.073 134201.552 -112569.17 134139.208 -111673.901 134106.18 -110534.609 134103.371 -110087.183 134125.686 -108802.19 134206.808 -107961.277 134368 -107438.972 134603.975 -107133.177 135066.311 -106848.186 136035.421 -106364.144 137487.286 -105691.893 139397.889 -104842.276 141743.21 -103826.136 144499.229 -102654.315 144892.991 -102488.345 145836.544 -102091.015 145749.171 -103244.646 145661.797 -104398.278 141523.595 -106176.526 140061.76 -106803.487 138750.808 -107363.481 137696.036 -107811.7 137002.744 -108103.335 136814.606 -108180.384 136722.425 -108300.901 136893.382 -108515.725 137372.954 -108852.11 138206.618 -109337.31 139439.851 -109998.581 141118.129 -110863.175 142237.078 -111430.055 144173.358 -112401.862 145681.083 -113141.599 146838.168 -113680.421 147722.526 -114049.482 148412.073 -114279.936 148984.722 -114402.937 149518.387 -114449.64 149800 -114454.117 150343.739 -114434.279 150886.815 -114353.996 151507.14 -114182.114 152282.629 -113887.479 153291.197 -113438.935 154610.757 -112805.33 156319.224 -111955.508 157362.921 -111430.055 159303.048 -110443.104 160773.33 -109674.338 161819.244 -109096.504 162486.267 -108682.347 162819.876 -108404.614 162865.548 -108236.05 162785.393 -108180.384 162333.641 -107993.039 161462.976 -107624.67 160278.698 -107120.087 158886.105 -106524.097 158076.404 -106176.526 153938.202 -104398.278 153850.829 -103244.646 153763.455 -102091.015 154707.008 -102488.345"/><path d="M 135210 -128815.331 134960 -129248.344 M 134710 -128815.331 135210 -128815.331 M 125015 -129709.669 155985 -129709.669 M 125015 -144249.669 125015 -129709.669 M 155985 -129709.669 155985 -144249.669 M 134960 -129248.344 134710 -128815.331 M 123040 -123001 123040 -105101 M 121790 -123001 123040 -123001 M 115540 -123061 126040 -123061 M 126040 -105041 115540 -105041 115540 -123061 M 118540 -123001 119790 -123001 M 126040 -123061 126040 -105041 M 118540 -105101 118540 -123001 M 123040 -105101 118540 -105101 M 121790 -123001 A 1000 1000 0 0 1 119790 -123001 M 149580 -55510 131460 -55510 M 146580 -55570 141520 -55570 M 149580 -86230 149580 -55510 M 134460 -86170 146580 -86170 M 134460 -55570 134460 -86170 M 131460 -86230 149580 -86230 M 146580 -86170 146580 -55570 M 139520 -55570 134460 -55570 M 131460 -55510 131460 -86230 M 139520 -55570 A 1000 1000 0 0 1 141520 -55570 M 163870 -86670 163870 -96950 M 161270 -86670 163870 -86670 M 158670 -88000 158670 -86670 160000 -86670 M 158670 -96950 163870 -96950 M 158670 -89270 158670 -96950 M 161270 -89270 161270 -86670 M 158670 -89270 161270 -89270" fill="none" stroke-width="120"/></g><g id="FWOZyPNthhQYiLoQXi_H_top_drill1" transform="scale(25.4,25.4)"><use xlink:href="#DBezc90RDeAQRkMXUc4j_pad-1" x="4645.7" y="-2362.2"/><use xlink:href="#DBezc90RDeAQRkMXUc4j_pad-1" x="4645.7" y="-5511.8"/><use xlink:href="#DBezc90RDeAQRkMXUc4j_pad-1" x="6417.3" y="-2362.2"/><use xlink:href="#DBezc90RDeAQRkMXUc4j_pad-1" x="6417.3" y="-5511.8"/></g><g id="FWOZyPNthhQYiLoQXi_H_top_drill2" transform="scale(25.4,25.4)"><use xlink:href="#uwGssnjtQSYVjznjCACS_pad-1" x="5236.2" y="-3818.9"/><use xlink:href="#uwGssnjtQSYVjznjCACS_pad-1" x="5531.5" y="-5393.7"/><use xlink:href="#uwGssnjtQSYVjznjCACS_pad-1" x="5551.2" y="-2881.9"/><use xlink:href="#uwGssnjtQSYVjznjCACS_pad-2" x="4605.5" y="-4190.2"/><use xlink:href="#uwGssnjtQSYVjznjCACS_pad-2" x="4605.5" y="-4290.2"/><use xlink:href="#uwGssnjtQSYVjznjCACS_pad-2" x="4605.5" y="-4390.2"/><use xlink:href="#uwGssnjtQSYVjznjCACS_pad-2" x="4605.5" y="-4490.2"/><use xlink:href="#uwGssnjtQSYVjznjCACS_pad-2" x="4605.5" y="-4590.2"/><use xlink:href="#uwGssnjtQSYVjznjCACS_pad-2" x="4605.5" y="-4690.2"/><use xlink:href="#uwGssnjtQSYVjznjCACS_pad-2" x="4605.5" y="-4790.2"/><use xlink:href="#uwGssnjtQSYVjznjCACS_pad-2" x="4635.8" y="-5020.8"/><use xlink:href="#uwGssnjtQSYVjznjCACS_pad-2" x="4635.8" y="-5119.2"/><use xlink:href="#uwGssnjtQSYVjznjCACS_pad-2" x="4905.5" y="-4190.2"/><use xlink:href="#uwGssnjtQSYVjznjCACS_pad-2" x="4905.5" y="-4290.2"/><use xlink:href="#uwGssnjtQSYVjznjCACS_pad-2" x="4905.5" y="-4390.2"/><use xlink:href="#uwGssnjtQSYVjznjCACS_pad-2" x="4905.5" y="-4490.2"/><use xlink:href="#uwGssnjtQSYVjznjCACS_pad-2" x="4905.5" y="-4590.2"/><use xlink:href="#uwGssnjtQSYVjznjCACS_pad-2" x="4905.5" y="-4690.2"/><use xlink:href="#uwGssnjtQSYVjznjCACS_pad-2" x="4905.5" y="-4790.2"/><use xlink:href="#uwGssnjtQSYVjznjCACS_pad-2" x="4960" y="-3210"/><use xlink:href="#uwGssnjtQSYVjznjCACS_pad-2" x="4960" y="-3610"/><use xlink:href="#uwGssnjtQSYVjznjCACS_pad-2" x="4982.3" y="-3883.9"/><use xlink:href="#uwGssnjtQSYVjznjCACS_pad-2" x="4982.3" y="-3982.3"/><use xlink:href="#uwGssnjtQSYVjznjCACS_pad-2" x="5180" y="-4390.6"/><use xlink:href="#uwGssnjtQSYVjznjCACS_pad-2" x="5180" y="-4790.6"/><use xlink:href="#uwGssnjtQSYVjznjCACS_pad-2" x="5232.3" y="-2240.2"/><use xlink:href="#uwGssnjtQSYVjznjCACS_pad-2" x="5232.3" y="-2340.2"/><use xlink:href="#uwGssnjtQSYVjznjCACS_pad-2" x="5232.3" y="-2440.2"/><use xlink:href="#uwGssnjtQSYVjznjCACS_pad-2" x="5232.3" y="-2540.2"/><use xlink:href="#uwGssnjtQSYVjznjCACS_pad-2" x="5232.3" y="-2640.2"/><use xlink:href="#uwGssnjtQSYVjznjCACS_pad-2" x="5232.3" y="-2740.2"/><use xlink:href="#uwGssnjtQSYVjznjCACS_pad-2" x="5232.3" y="-2840.2"/><use xlink:href="#uwGssnjtQSYVjznjCACS_pad-2" x="5232.3" y="-2940.2"/><use xlink:href="#uwGssnjtQSYVjznjCACS_pad-2" x="5232.3" y="-3040.2"/><use xlink:href="#uwGssnjtQSYVjznjCACS_pad-2" x="5232.3" y="-3140.2"/><use xlink:href="#uwGssnjtQSYVjznjCACS_pad-2" x="5232.3" y="-3240.2"/><use xlink:href="#uwGssnjtQSYVjznjCACS_pad-2" x="5232.3" y="-3340.2"/><use xlink:href="#uwGssnjtQSYVjznjCACS_pad-2" x="5268.5" y="-3937"/><use xlink:href="#uwGssnjtQSYVjznjCACS_pad-2" x="5668.5" y="-3937"/><use xlink:href="#uwGssnjtQSYVjznjCACS_pad-2" x="5832.3" y="-2240.2"/><use xlink:href="#uwGssnjtQSYVjznjCACS_pad-2" x="5832.3" y="-2340.2"/><use xlink:href="#uwGssnjtQSYVjznjCACS_pad-2" x="5832.3" y="-2440.2"/><use xlink:href="#uwGssnjtQSYVjznjCACS_pad-2" x="5832.3" y="-2540.2"/><use xlink:href="#uwGssnjtQSYVjznjCACS_pad-2" x="5832.3" y="-2640.2"/><use xlink:href="#uwGssnjtQSYVjznjCACS_pad-2" x="5832.3" y="-2740.2"/><use xlink:href="#uwGssnjtQSYVjznjCACS_pad-2" x="5832.3" y="-2840.2"/><use xlink:href="#uwGssnjtQSYVjznjCACS_pad-2" x="5832.3" y="-2940.2"/><use xlink:href="#uwGssnjtQSYVjznjCACS_pad-2" x="5832.3" y="-3040.2"/><use xlink:href="#uwGssnjtQSYVjznjCACS_pad-2" x="5832.3" y="-3140.2"/><use xlink:href="#uwGssnjtQSYVjznjCACS_pad-2" x="5832.3" y="-3240.2"/><use xlink:href="#uwGssnjtQSYVjznjCACS_pad-2" x="5832.3" y="-3340.2"/><use xlink:href="#uwGssnjtQSYVjznjCACS_pad-3" x="4679.8" y="-2740"/><use xlink:href="#uwGssnjtQSYVjznjCACS_pad-3" x="4779.8" y="-2740"/><use xlink:href="#uwGssnjtQSYVjznjCACS_pad-4" x="4670" y="-3480"/><use xlink:href="#uwGssnjtQSYVjznjCACS_pad-4" x="4670" y="-3580"/><use xlink:href="#uwGssnjtQSYVjznjCACS_pad-4" x="4670" y="-3680"/><use xlink:href="#uwGssnjtQSYVjznjCACS_pad-4" x="5313.4" y="-5179.9"/><use xlink:href="#uwGssnjtQSYVjznjCACS_pad-4" x="5367.9" y="-5291.7"/><use xlink:href="#uwGssnjtQSYVjznjCACS_pad-4" x="5422.4" y="-5179.9"/><use xlink:href="#uwGssnjtQSYVjznjCACS_pad-4" x="5477" y="-5291.7"/><use xlink:href="#uwGssnjtQSYVjznjCACS_pad-4" x="5531.5" y="-5179.9"/><use xlink:href="#uwGssnjtQSYVjznjCACS_pad-4" x="5586" y="-5291.7"/><use xlink:href="#uwGssnjtQSYVjznjCACS_pad-4" x="5640.6" y="-5179.9"/><use xlink:href="#uwGssnjtQSYVjznjCACS_pad-4" x="5695.1" y="-5291.7"/><use xlink:href="#uwGssnjtQSYVjznjCACS_pad-4" x="5749.6" y="-5179.9"/><use xlink:href="#uwGssnjtQSYVjznjCACS_pad-4" x="6299.2" y="-3464.6"/><use xlink:href="#uwGssnjtQSYVjznjCACS_pad-4" x="6299.2" y="-3564.6"/><use xlink:href="#uwGssnjtQSYVjznjCACS_pad-4" x="6299.2" y="-3664.6"/><use xlink:href="#uwGssnjtQSYVjznjCACS_pad-4" x="6299.2" y="-3764.6"/><use xlink:href="#uwGssnjtQSYVjznjCACS_pad-4" x="6399.2" y="-3464.6"/><use xlink:href="#uwGssnjtQSYVjznjCACS_pad-4" x="6399.2" y="-3564.6"/><use xlink:href="#uwGssnjtQSYVjznjCACS_pad-4" x="6399.2" y="-3664.6"/><use xlink:href="#uwGssnjtQSYVjznjCACS_pad-4" x="6399.2" y="-3764.6"/><use xlink:href="#uwGssnjtQSYVjznjCACS_pad-5" x="6228.3" y="-2815"/><use xlink:href="#uwGssnjtQSYVjznjCACS_pad-5" x="6228.3" y="-3070.9"/><use xlink:href="#uwGssnjtQSYVjznjCACS_pad-5" x="6405.5" y="-2815"/><use xlink:href="#uwGssnjtQSYVjznjCACS_pad-5" x="6405.5" y="-3070.9"/><use xlink:href="#uwGssnjtQSYVjznjCACS_pad-6" x="5039.4" y="-5235.8"/><use xlink:href="#uwGssnjtQSYVjznjCACS_pad-6" x="6023.6" y="-5235.8"/></g><clipPath id="FWOZyPNthhQYiLoQXi_H_top_outline"><path d="M 113000 -60000 113000 -140000 A 5000 5000 0 0 1 118000 -145000 L 163000 -145000 A 5000 5000 0 0 1 168000 -140000 L 168000 -60000 A 5000 5000 0 0 1 163000 -55000 L 118000 -55000 A 5000 5000 0 0 1 113000 -60000" fill="none" stroke-width="100"/></clipPath><mask id="FWOZyPNthhQYiLoQXi_H_top_mech-mask"><g fill="#000" stroke="#000"><rect x="113000" y="-145000" width="55000" height="90000" fill="#fff"/><use xlink:href="#FWOZyPNthhQYiLoQXi_H_top_drill1"/><use xlink:href="#FWOZyPNthhQYiLoQXi_H_top_drill2"/></g></mask><mask id="FWOZyPNthhQYiLoQXi_H_top_cf-mask"><g fill="#fff" stroke="#fff"><use xlink:href="#FWOZyPNthhQYiLoQXi_H_top_soldermask"/></g></mask><mask id="FWOZyPNthhQYiLoQXi_H_top_sm-mask"><g fill="#000" stroke="#000"><rect x="113000" y="-145000" width="55000" height="90000" fill="#fff"/><use xlink:href="#FWOZyPNthhQYiLoQXi_H_top_soldermask"/></g></mask></defs><g transform="translate(0,-200000) scale(1,-1)"><g mask="url(#FWOZyPNthhQYiLoQXi_H_top_mech-mask)" clip-path="url(#FWOZyPNthhQYiLoQXi_H_top_outline)"><rect x="113000" y="-145000" width="55000" height="90000" fill="currentColor" class="FWOZyPNthhQYiLoQXi_H_fr4"/><use xlink:href="#FWOZyPNthhQYiLoQXi_H_top_copper" fill="currentColor" stroke="currentColor" class="FWOZyPNthhQYiLoQXi_H_cu"/><use xlink:href="#FWOZyPNthhQYiLoQXi_H_top_copper" fill="currentColor" stroke="currentColor" class="FWOZyPNthhQYiLoQXi_H_cf" mask="url(#FWOZyPNthhQYiLoQXi_H_top_cf-mask)"/><g mask="url(#FWOZyPNthhQYiLoQXi_H_top_sm-mask)"><rect x="113000" y="-145000" width="55000" height="90000" fill="currentColor" class="FWOZyPNthhQYiLoQXi_H_sm"/><use xlink:href="#FWOZyPNthhQYiLoQXi_H_top_silkscreen" fill="currentColor" stroke="currentColor" class="FWOZyPNthhQYiLoQXi_H_ss"/></g></g></g></svg>